G04 #@! TF.GenerationSoftware,KiCad,Pcbnew,(6.0.7)*
G04 #@! TF.CreationDate,2022-08-18T23:52:56-03:00*
G04 #@! TF.ProjectId,Esquematico,45737175-656d-4617-9469-636f2e6b6963,rev?*
G04 #@! TF.SameCoordinates,Original*
G04 #@! TF.FileFunction,Copper,L2,Bot*
G04 #@! TF.FilePolarity,Positive*
%FSLAX46Y46*%
G04 Gerber Fmt 4.6, Leading zero omitted, Abs format (unit mm)*
G04 Created by KiCad (PCBNEW (6.0.7)) date 2022-08-18 23:52:56*
%MOMM*%
%LPD*%
G01*
G04 APERTURE LIST*
%ADD10C,0.100000*%
%ADD11C,0.150000*%
%ADD12C,0.300000*%
%ADD13C,0.400000*%
G04 #@! TA.AperFunction,ComponentPad*
%ADD14R,1.600000X1.600000*%
G04 #@! TD*
G04 #@! TA.AperFunction,ComponentPad*
%ADD15O,1.600000X1.600000*%
G04 #@! TD*
G04 #@! TA.AperFunction,ViaPad*
%ADD16C,0.800000*%
G04 #@! TD*
G04 #@! TA.AperFunction,Conductor*
%ADD17C,0.250000*%
G04 #@! TD*
G04 APERTURE END LIST*
D10*
D11*
X177002200Y-166007200D02*
X177002200Y-198007200D01*
X285002200Y-198007200D01*
X285002200Y-166007200D01*
X177002200Y-166007200D01*
D10*
D11*
X10000000Y-10000000D02*
X10000000Y-200007200D01*
X287002200Y-200007200D01*
X287002200Y-10000000D01*
X10000000Y-10000000D01*
D10*
D11*
X12000000Y-12000000D02*
X12000000Y-198007200D01*
X285002200Y-198007200D01*
X285002200Y-12000000D01*
X12000000Y-12000000D01*
D10*
D11*
X60000000Y-12000000D02*
X60000000Y-10000000D01*
D10*
D11*
X110000000Y-12000000D02*
X110000000Y-10000000D01*
D10*
D11*
X160000000Y-12000000D02*
X160000000Y-10000000D01*
D10*
D11*
X210000000Y-12000000D02*
X210000000Y-10000000D01*
D10*
D11*
X260000000Y-12000000D02*
X260000000Y-10000000D01*
D10*
D11*
X36065476Y-11588095D02*
X35322619Y-11588095D01*
X35694047Y-11588095D02*
X35694047Y-10288095D01*
X35570238Y-10473809D01*
X35446428Y-10597619D01*
X35322619Y-10659523D01*
D10*
D11*
X85322619Y-10411904D02*
X85384523Y-10350000D01*
X85508333Y-10288095D01*
X85817857Y-10288095D01*
X85941666Y-10350000D01*
X86003571Y-10411904D01*
X86065476Y-10535714D01*
X86065476Y-10659523D01*
X86003571Y-10845238D01*
X85260714Y-11588095D01*
X86065476Y-11588095D01*
D10*
D11*
X135260714Y-10288095D02*
X136065476Y-10288095D01*
X135632142Y-10783333D01*
X135817857Y-10783333D01*
X135941666Y-10845238D01*
X136003571Y-10907142D01*
X136065476Y-11030952D01*
X136065476Y-11340476D01*
X136003571Y-11464285D01*
X135941666Y-11526190D01*
X135817857Y-11588095D01*
X135446428Y-11588095D01*
X135322619Y-11526190D01*
X135260714Y-11464285D01*
D10*
D11*
X185941666Y-10721428D02*
X185941666Y-11588095D01*
X185632142Y-10226190D02*
X185322619Y-11154761D01*
X186127380Y-11154761D01*
D10*
D11*
X236003571Y-10288095D02*
X235384523Y-10288095D01*
X235322619Y-10907142D01*
X235384523Y-10845238D01*
X235508333Y-10783333D01*
X235817857Y-10783333D01*
X235941666Y-10845238D01*
X236003571Y-10907142D01*
X236065476Y-11030952D01*
X236065476Y-11340476D01*
X236003571Y-11464285D01*
X235941666Y-11526190D01*
X235817857Y-11588095D01*
X235508333Y-11588095D01*
X235384523Y-11526190D01*
X235322619Y-11464285D01*
D10*
D11*
X285941666Y-10288095D02*
X285694047Y-10288095D01*
X285570238Y-10350000D01*
X285508333Y-10411904D01*
X285384523Y-10597619D01*
X285322619Y-10845238D01*
X285322619Y-11340476D01*
X285384523Y-11464285D01*
X285446428Y-11526190D01*
X285570238Y-11588095D01*
X285817857Y-11588095D01*
X285941666Y-11526190D01*
X286003571Y-11464285D01*
X286065476Y-11340476D01*
X286065476Y-11030952D01*
X286003571Y-10907142D01*
X285941666Y-10845238D01*
X285817857Y-10783333D01*
X285570238Y-10783333D01*
X285446428Y-10845238D01*
X285384523Y-10907142D01*
X285322619Y-11030952D01*
D10*
D11*
X60000000Y-198007200D02*
X60000000Y-200007200D01*
D10*
D11*
X110000000Y-198007200D02*
X110000000Y-200007200D01*
D10*
D11*
X160000000Y-198007200D02*
X160000000Y-200007200D01*
D10*
D11*
X210000000Y-198007200D02*
X210000000Y-200007200D01*
D10*
D11*
X260000000Y-198007200D02*
X260000000Y-200007200D01*
D10*
D11*
X36065476Y-199595295D02*
X35322619Y-199595295D01*
X35694047Y-199595295D02*
X35694047Y-198295295D01*
X35570238Y-198481009D01*
X35446428Y-198604819D01*
X35322619Y-198666723D01*
D10*
D11*
X85322619Y-198419104D02*
X85384523Y-198357200D01*
X85508333Y-198295295D01*
X85817857Y-198295295D01*
X85941666Y-198357200D01*
X86003571Y-198419104D01*
X86065476Y-198542914D01*
X86065476Y-198666723D01*
X86003571Y-198852438D01*
X85260714Y-199595295D01*
X86065476Y-199595295D01*
D10*
D11*
X135260714Y-198295295D02*
X136065476Y-198295295D01*
X135632142Y-198790533D01*
X135817857Y-198790533D01*
X135941666Y-198852438D01*
X136003571Y-198914342D01*
X136065476Y-199038152D01*
X136065476Y-199347676D01*
X136003571Y-199471485D01*
X135941666Y-199533390D01*
X135817857Y-199595295D01*
X135446428Y-199595295D01*
X135322619Y-199533390D01*
X135260714Y-199471485D01*
D10*
D11*
X185941666Y-198728628D02*
X185941666Y-199595295D01*
X185632142Y-198233390D02*
X185322619Y-199161961D01*
X186127380Y-199161961D01*
D10*
D11*
X236003571Y-198295295D02*
X235384523Y-198295295D01*
X235322619Y-198914342D01*
X235384523Y-198852438D01*
X235508333Y-198790533D01*
X235817857Y-198790533D01*
X235941666Y-198852438D01*
X236003571Y-198914342D01*
X236065476Y-199038152D01*
X236065476Y-199347676D01*
X236003571Y-199471485D01*
X235941666Y-199533390D01*
X235817857Y-199595295D01*
X235508333Y-199595295D01*
X235384523Y-199533390D01*
X235322619Y-199471485D01*
D10*
D11*
X285941666Y-198295295D02*
X285694047Y-198295295D01*
X285570238Y-198357200D01*
X285508333Y-198419104D01*
X285384523Y-198604819D01*
X285322619Y-198852438D01*
X285322619Y-199347676D01*
X285384523Y-199471485D01*
X285446428Y-199533390D01*
X285570238Y-199595295D01*
X285817857Y-199595295D01*
X285941666Y-199533390D01*
X286003571Y-199471485D01*
X286065476Y-199347676D01*
X286065476Y-199038152D01*
X286003571Y-198914342D01*
X285941666Y-198852438D01*
X285817857Y-198790533D01*
X285570238Y-198790533D01*
X285446428Y-198852438D01*
X285384523Y-198914342D01*
X285322619Y-199038152D01*
D10*
D11*
X10000000Y-60000000D02*
X12000000Y-60000000D01*
D10*
D11*
X10000000Y-110000000D02*
X12000000Y-110000000D01*
D10*
D11*
X10000000Y-160000000D02*
X12000000Y-160000000D01*
D10*
D11*
X10690476Y-35216666D02*
X11309523Y-35216666D01*
X10566666Y-35588095D02*
X11000000Y-34288095D01*
X11433333Y-35588095D01*
D10*
D11*
X11092857Y-84907142D02*
X11278571Y-84969047D01*
X11340476Y-85030952D01*
X11402380Y-85154761D01*
X11402380Y-85340476D01*
X11340476Y-85464285D01*
X11278571Y-85526190D01*
X11154761Y-85588095D01*
X10659523Y-85588095D01*
X10659523Y-84288095D01*
X11092857Y-84288095D01*
X11216666Y-84350000D01*
X11278571Y-84411904D01*
X11340476Y-84535714D01*
X11340476Y-84659523D01*
X11278571Y-84783333D01*
X11216666Y-84845238D01*
X11092857Y-84907142D01*
X10659523Y-84907142D01*
D10*
D11*
X11402380Y-135464285D02*
X11340476Y-135526190D01*
X11154761Y-135588095D01*
X11030952Y-135588095D01*
X10845238Y-135526190D01*
X10721428Y-135402380D01*
X10659523Y-135278571D01*
X10597619Y-135030952D01*
X10597619Y-134845238D01*
X10659523Y-134597619D01*
X10721428Y-134473809D01*
X10845238Y-134350000D01*
X11030952Y-134288095D01*
X11154761Y-134288095D01*
X11340476Y-134350000D01*
X11402380Y-134411904D01*
D10*
D11*
X10659523Y-185588095D02*
X10659523Y-184288095D01*
X10969047Y-184288095D01*
X11154761Y-184350000D01*
X11278571Y-184473809D01*
X11340476Y-184597619D01*
X11402380Y-184845238D01*
X11402380Y-185030952D01*
X11340476Y-185278571D01*
X11278571Y-185402380D01*
X11154761Y-185526190D01*
X10969047Y-185588095D01*
X10659523Y-185588095D01*
D10*
D11*
X287002200Y-60000000D02*
X285002200Y-60000000D01*
D10*
D11*
X287002200Y-110000000D02*
X285002200Y-110000000D01*
D10*
D11*
X287002200Y-160000000D02*
X285002200Y-160000000D01*
D10*
D11*
X285692676Y-35216666D02*
X286311723Y-35216666D01*
X285568866Y-35588095D02*
X286002200Y-34288095D01*
X286435533Y-35588095D01*
D10*
D11*
X286095057Y-84907142D02*
X286280771Y-84969047D01*
X286342676Y-85030952D01*
X286404580Y-85154761D01*
X286404580Y-85340476D01*
X286342676Y-85464285D01*
X286280771Y-85526190D01*
X286156961Y-85588095D01*
X285661723Y-85588095D01*
X285661723Y-84288095D01*
X286095057Y-84288095D01*
X286218866Y-84350000D01*
X286280771Y-84411904D01*
X286342676Y-84535714D01*
X286342676Y-84659523D01*
X286280771Y-84783333D01*
X286218866Y-84845238D01*
X286095057Y-84907142D01*
X285661723Y-84907142D01*
D10*
D11*
X286404580Y-135464285D02*
X286342676Y-135526190D01*
X286156961Y-135588095D01*
X286033152Y-135588095D01*
X285847438Y-135526190D01*
X285723628Y-135402380D01*
X285661723Y-135278571D01*
X285599819Y-135030952D01*
X285599819Y-134845238D01*
X285661723Y-134597619D01*
X285723628Y-134473809D01*
X285847438Y-134350000D01*
X286033152Y-134288095D01*
X286156961Y-134288095D01*
X286342676Y-134350000D01*
X286404580Y-134411904D01*
D10*
D11*
X285661723Y-185588095D02*
X285661723Y-184288095D01*
X285971247Y-184288095D01*
X286156961Y-184350000D01*
X286280771Y-184473809D01*
X286342676Y-184597619D01*
X286404580Y-184845238D01*
X286404580Y-185030952D01*
X286342676Y-185278571D01*
X286280771Y-185402380D01*
X286156961Y-185526190D01*
X285971247Y-185588095D01*
X285661723Y-185588095D01*
D10*
D11*
X200434342Y-193785771D02*
X200434342Y-192285771D01*
X200791485Y-192285771D01*
X201005771Y-192357200D01*
X201148628Y-192500057D01*
X201220057Y-192642914D01*
X201291485Y-192928628D01*
X201291485Y-193142914D01*
X201220057Y-193428628D01*
X201148628Y-193571485D01*
X201005771Y-193714342D01*
X200791485Y-193785771D01*
X200434342Y-193785771D01*
X202577200Y-193785771D02*
X202577200Y-193000057D01*
X202505771Y-192857200D01*
X202362914Y-192785771D01*
X202077200Y-192785771D01*
X201934342Y-192857200D01*
X202577200Y-193714342D02*
X202434342Y-193785771D01*
X202077200Y-193785771D01*
X201934342Y-193714342D01*
X201862914Y-193571485D01*
X201862914Y-193428628D01*
X201934342Y-193285771D01*
X202077200Y-193214342D01*
X202434342Y-193214342D01*
X202577200Y-193142914D01*
X203077200Y-192785771D02*
X203648628Y-192785771D01*
X203291485Y-192285771D02*
X203291485Y-193571485D01*
X203362914Y-193714342D01*
X203505771Y-193785771D01*
X203648628Y-193785771D01*
X204720057Y-193714342D02*
X204577200Y-193785771D01*
X204291485Y-193785771D01*
X204148628Y-193714342D01*
X204077200Y-193571485D01*
X204077200Y-193000057D01*
X204148628Y-192857200D01*
X204291485Y-192785771D01*
X204577200Y-192785771D01*
X204720057Y-192857200D01*
X204791485Y-193000057D01*
X204791485Y-193142914D01*
X204077200Y-193285771D01*
X205434342Y-193642914D02*
X205505771Y-193714342D01*
X205434342Y-193785771D01*
X205362914Y-193714342D01*
X205434342Y-193642914D01*
X205434342Y-193785771D01*
X205434342Y-192857200D02*
X205505771Y-192928628D01*
X205434342Y-193000057D01*
X205362914Y-192928628D01*
X205434342Y-192857200D01*
X205434342Y-193000057D01*
D10*
D11*
X177002200Y-194507200D02*
X285002200Y-194507200D01*
D10*
D11*
X178434342Y-196585771D02*
X178434342Y-195085771D01*
X179291485Y-196585771D02*
X178648628Y-195728628D01*
X179291485Y-195085771D02*
X178434342Y-195942914D01*
X179934342Y-196585771D02*
X179934342Y-195585771D01*
X179934342Y-195085771D02*
X179862914Y-195157200D01*
X179934342Y-195228628D01*
X180005771Y-195157200D01*
X179934342Y-195085771D01*
X179934342Y-195228628D01*
X181505771Y-196442914D02*
X181434342Y-196514342D01*
X181220057Y-196585771D01*
X181077200Y-196585771D01*
X180862914Y-196514342D01*
X180720057Y-196371485D01*
X180648628Y-196228628D01*
X180577200Y-195942914D01*
X180577200Y-195728628D01*
X180648628Y-195442914D01*
X180720057Y-195300057D01*
X180862914Y-195157200D01*
X181077200Y-195085771D01*
X181220057Y-195085771D01*
X181434342Y-195157200D01*
X181505771Y-195228628D01*
X182791485Y-196585771D02*
X182791485Y-195800057D01*
X182720057Y-195657200D01*
X182577200Y-195585771D01*
X182291485Y-195585771D01*
X182148628Y-195657200D01*
X182791485Y-196514342D02*
X182648628Y-196585771D01*
X182291485Y-196585771D01*
X182148628Y-196514342D01*
X182077200Y-196371485D01*
X182077200Y-196228628D01*
X182148628Y-196085771D01*
X182291485Y-196014342D01*
X182648628Y-196014342D01*
X182791485Y-195942914D01*
X184148628Y-196585771D02*
X184148628Y-195085771D01*
X184148628Y-196514342D02*
X184005771Y-196585771D01*
X183720057Y-196585771D01*
X183577200Y-196514342D01*
X183505771Y-196442914D01*
X183434342Y-196300057D01*
X183434342Y-195871485D01*
X183505771Y-195728628D01*
X183577200Y-195657200D01*
X183720057Y-195585771D01*
X184005771Y-195585771D01*
X184148628Y-195657200D01*
X186005771Y-195800057D02*
X186505771Y-195800057D01*
X186720057Y-196585771D02*
X186005771Y-196585771D01*
X186005771Y-195085771D01*
X186720057Y-195085771D01*
X187362914Y-196442914D02*
X187434342Y-196514342D01*
X187362914Y-196585771D01*
X187291485Y-196514342D01*
X187362914Y-196442914D01*
X187362914Y-196585771D01*
X188077200Y-196585771D02*
X188077200Y-195085771D01*
X188434342Y-195085771D01*
X188648628Y-195157200D01*
X188791485Y-195300057D01*
X188862914Y-195442914D01*
X188934342Y-195728628D01*
X188934342Y-195942914D01*
X188862914Y-196228628D01*
X188791485Y-196371485D01*
X188648628Y-196514342D01*
X188434342Y-196585771D01*
X188077200Y-196585771D01*
X189577200Y-196442914D02*
X189648628Y-196514342D01*
X189577200Y-196585771D01*
X189505771Y-196514342D01*
X189577200Y-196442914D01*
X189577200Y-196585771D01*
X190220057Y-196157200D02*
X190934342Y-196157200D01*
X190077200Y-196585771D02*
X190577200Y-195085771D01*
X191077200Y-196585771D01*
X191577200Y-196442914D02*
X191648628Y-196514342D01*
X191577200Y-196585771D01*
X191505771Y-196514342D01*
X191577200Y-196442914D01*
X191577200Y-196585771D01*
X194577200Y-195585771D02*
X194577200Y-197085771D01*
X194577200Y-195657200D02*
X194720057Y-195585771D01*
X195005771Y-195585771D01*
X195148628Y-195657200D01*
X195220057Y-195728628D01*
X195291485Y-195871485D01*
X195291485Y-196300057D01*
X195220057Y-196442914D01*
X195148628Y-196514342D01*
X195005771Y-196585771D01*
X194720057Y-196585771D01*
X194577200Y-196514342D01*
X196577200Y-196514342D02*
X196434342Y-196585771D01*
X196148628Y-196585771D01*
X196005771Y-196514342D01*
X195934342Y-196442914D01*
X195862914Y-196300057D01*
X195862914Y-195871485D01*
X195934342Y-195728628D01*
X196005771Y-195657200D01*
X196148628Y-195585771D01*
X196434342Y-195585771D01*
X196577200Y-195657200D01*
X197220057Y-196585771D02*
X197220057Y-195085771D01*
X197220057Y-195657200D02*
X197362914Y-195585771D01*
X197648628Y-195585771D01*
X197791485Y-195657200D01*
X197862914Y-195728628D01*
X197934342Y-195871485D01*
X197934342Y-196300057D01*
X197862914Y-196442914D01*
X197791485Y-196514342D01*
X197648628Y-196585771D01*
X197362914Y-196585771D01*
X197220057Y-196514342D01*
X198577200Y-195585771D02*
X198577200Y-196585771D01*
X198577200Y-195728628D02*
X198648628Y-195657200D01*
X198791485Y-195585771D01*
X199005771Y-195585771D01*
X199148628Y-195657200D01*
X199220057Y-195800057D01*
X199220057Y-196585771D01*
X200505771Y-196514342D02*
X200362914Y-196585771D01*
X200077200Y-196585771D01*
X199934342Y-196514342D01*
X199862914Y-196371485D01*
X199862914Y-195800057D01*
X199934342Y-195657200D01*
X200077200Y-195585771D01*
X200362914Y-195585771D01*
X200505771Y-195657200D01*
X200577200Y-195800057D01*
X200577200Y-195942914D01*
X199862914Y-196085771D01*
X201077200Y-195585771D02*
X201362914Y-196585771D01*
X201648628Y-195871485D01*
X201934342Y-196585771D01*
X202220057Y-195585771D01*
X204362914Y-197157200D02*
X204291485Y-197085771D01*
X204148628Y-196871485D01*
X204077200Y-196728628D01*
X204005771Y-196514342D01*
X203934342Y-196157200D01*
X203934342Y-195871485D01*
X204005771Y-195514342D01*
X204077200Y-195300057D01*
X204148628Y-195157200D01*
X204291485Y-194942914D01*
X204362914Y-194871485D01*
X205577200Y-195085771D02*
X205291485Y-195085771D01*
X205148628Y-195157200D01*
X205077200Y-195228628D01*
X204934342Y-195442914D01*
X204862914Y-195728628D01*
X204862914Y-196300057D01*
X204934342Y-196442914D01*
X205005771Y-196514342D01*
X205148628Y-196585771D01*
X205434342Y-196585771D01*
X205577200Y-196514342D01*
X205648628Y-196442914D01*
X205720057Y-196300057D01*
X205720057Y-195942914D01*
X205648628Y-195800057D01*
X205577200Y-195728628D01*
X205434342Y-195657200D01*
X205148628Y-195657200D01*
X205005771Y-195728628D01*
X204934342Y-195800057D01*
X204862914Y-195942914D01*
X206362914Y-196442914D02*
X206434342Y-196514342D01*
X206362914Y-196585771D01*
X206291485Y-196514342D01*
X206362914Y-196442914D01*
X206362914Y-196585771D01*
X207362914Y-195085771D02*
X207505771Y-195085771D01*
X207648628Y-195157200D01*
X207720057Y-195228628D01*
X207791485Y-195371485D01*
X207862914Y-195657200D01*
X207862914Y-196014342D01*
X207791485Y-196300057D01*
X207720057Y-196442914D01*
X207648628Y-196514342D01*
X207505771Y-196585771D01*
X207362914Y-196585771D01*
X207220057Y-196514342D01*
X207148628Y-196442914D01*
X207077200Y-196300057D01*
X207005771Y-196014342D01*
X207005771Y-195657200D01*
X207077200Y-195371485D01*
X207148628Y-195228628D01*
X207220057Y-195157200D01*
X207362914Y-195085771D01*
X208505771Y-196442914D02*
X208577200Y-196514342D01*
X208505771Y-196585771D01*
X208434342Y-196514342D01*
X208505771Y-196442914D01*
X208505771Y-196585771D01*
X209077200Y-195085771D02*
X210077200Y-195085771D01*
X209434342Y-196585771D01*
X210505771Y-197157200D02*
X210577200Y-197085771D01*
X210720057Y-196871485D01*
X210791485Y-196728628D01*
X210862914Y-196514342D01*
X210934342Y-196157200D01*
X210934342Y-195871485D01*
X210862914Y-195514342D01*
X210791485Y-195300057D01*
X210720057Y-195157200D01*
X210577200Y-194942914D01*
X210505771Y-194871485D01*
D10*
D11*
X177002200Y-191507200D02*
X285002200Y-191507200D01*
D10*
D12*
X264411485Y-193785771D02*
X263911485Y-193071485D01*
X263554342Y-193785771D02*
X263554342Y-192285771D01*
X264125771Y-192285771D01*
X264268628Y-192357200D01*
X264340057Y-192428628D01*
X264411485Y-192571485D01*
X264411485Y-192785771D01*
X264340057Y-192928628D01*
X264268628Y-193000057D01*
X264125771Y-193071485D01*
X263554342Y-193071485D01*
X265625771Y-193714342D02*
X265482914Y-193785771D01*
X265197200Y-193785771D01*
X265054342Y-193714342D01*
X264982914Y-193571485D01*
X264982914Y-193000057D01*
X265054342Y-192857200D01*
X265197200Y-192785771D01*
X265482914Y-192785771D01*
X265625771Y-192857200D01*
X265697200Y-193000057D01*
X265697200Y-193142914D01*
X264982914Y-193285771D01*
X266197200Y-192785771D02*
X266554342Y-193785771D01*
X266911485Y-192785771D01*
X267482914Y-193642914D02*
X267554342Y-193714342D01*
X267482914Y-193785771D01*
X267411485Y-193714342D01*
X267482914Y-193642914D01*
X267482914Y-193785771D01*
X267482914Y-192857200D02*
X267554342Y-192928628D01*
X267482914Y-193000057D01*
X267411485Y-192928628D01*
X267482914Y-192857200D01*
X267482914Y-193000057D01*
D10*
D11*
X178362914Y-193714342D02*
X178577200Y-193785771D01*
X178934342Y-193785771D01*
X179077200Y-193714342D01*
X179148628Y-193642914D01*
X179220057Y-193500057D01*
X179220057Y-193357200D01*
X179148628Y-193214342D01*
X179077200Y-193142914D01*
X178934342Y-193071485D01*
X178648628Y-193000057D01*
X178505771Y-192928628D01*
X178434342Y-192857200D01*
X178362914Y-192714342D01*
X178362914Y-192571485D01*
X178434342Y-192428628D01*
X178505771Y-192357200D01*
X178648628Y-192285771D01*
X179005771Y-192285771D01*
X179220057Y-192357200D01*
X179862914Y-193785771D02*
X179862914Y-192785771D01*
X179862914Y-192285771D02*
X179791485Y-192357200D01*
X179862914Y-192428628D01*
X179934342Y-192357200D01*
X179862914Y-192285771D01*
X179862914Y-192428628D01*
X180434342Y-192785771D02*
X181220057Y-192785771D01*
X180434342Y-193785771D01*
X181220057Y-193785771D01*
X182362914Y-193714342D02*
X182220057Y-193785771D01*
X181934342Y-193785771D01*
X181791485Y-193714342D01*
X181720057Y-193571485D01*
X181720057Y-193000057D01*
X181791485Y-192857200D01*
X181934342Y-192785771D01*
X182220057Y-192785771D01*
X182362914Y-192857200D01*
X182434342Y-193000057D01*
X182434342Y-193142914D01*
X181720057Y-193285771D01*
X183077200Y-193642914D02*
X183148628Y-193714342D01*
X183077200Y-193785771D01*
X183005771Y-193714342D01*
X183077200Y-193642914D01*
X183077200Y-193785771D01*
X183077200Y-192857200D02*
X183148628Y-192928628D01*
X183077200Y-193000057D01*
X183005771Y-192928628D01*
X183077200Y-192857200D01*
X183077200Y-193000057D01*
X184862914Y-193357200D02*
X185577200Y-193357200D01*
X184720057Y-193785771D02*
X185220057Y-192285771D01*
X185720057Y-193785771D01*
X186862914Y-192785771D02*
X186862914Y-193785771D01*
X186505771Y-192214342D02*
X186148628Y-193285771D01*
X187077200Y-193285771D01*
D10*
D11*
X263434342Y-196585771D02*
X263434342Y-195085771D01*
X264791485Y-196585771D02*
X264791485Y-195085771D01*
X264791485Y-196514342D02*
X264648628Y-196585771D01*
X264362914Y-196585771D01*
X264220057Y-196514342D01*
X264148628Y-196442914D01*
X264077200Y-196300057D01*
X264077200Y-195871485D01*
X264148628Y-195728628D01*
X264220057Y-195657200D01*
X264362914Y-195585771D01*
X264648628Y-195585771D01*
X264791485Y-195657200D01*
X265505771Y-196442914D02*
X265577200Y-196514342D01*
X265505771Y-196585771D01*
X265434342Y-196514342D01*
X265505771Y-196442914D01*
X265505771Y-196585771D01*
X265505771Y-195657200D02*
X265577200Y-195728628D01*
X265505771Y-195800057D01*
X265434342Y-195728628D01*
X265505771Y-195657200D01*
X265505771Y-195800057D01*
X268148628Y-196585771D02*
X267291485Y-196585771D01*
X267720057Y-196585771D02*
X267720057Y-195085771D01*
X267577200Y-195300057D01*
X267434342Y-195442914D01*
X267291485Y-195514342D01*
X269862914Y-195014342D02*
X268577200Y-196942914D01*
X271148628Y-196585771D02*
X270291485Y-196585771D01*
X270720057Y-196585771D02*
X270720057Y-195085771D01*
X270577200Y-195300057D01*
X270434342Y-195442914D01*
X270291485Y-195514342D01*
D10*
D11*
X177002200Y-187507200D02*
X285002200Y-187507200D01*
D10*
D13*
X178714580Y-188211961D02*
X179857438Y-188211961D01*
X179036009Y-190211961D02*
X179286009Y-188211961D01*
X180274104Y-190211961D02*
X180440771Y-188878628D01*
X180524104Y-188211961D02*
X180416961Y-188307200D01*
X180500295Y-188402438D01*
X180607438Y-188307200D01*
X180524104Y-188211961D01*
X180500295Y-188402438D01*
X181107438Y-188878628D02*
X181869342Y-188878628D01*
X181476485Y-188211961D02*
X181262200Y-189926247D01*
X181333628Y-190116723D01*
X181512200Y-190211961D01*
X181702676Y-190211961D01*
X182655057Y-190211961D02*
X182476485Y-190116723D01*
X182405057Y-189926247D01*
X182619342Y-188211961D01*
X184190771Y-190116723D02*
X183988390Y-190211961D01*
X183607438Y-190211961D01*
X183428866Y-190116723D01*
X183357438Y-189926247D01*
X183452676Y-189164342D01*
X183571723Y-188973866D01*
X183774104Y-188878628D01*
X184155057Y-188878628D01*
X184333628Y-188973866D01*
X184405057Y-189164342D01*
X184381247Y-189354819D01*
X183405057Y-189545295D01*
X185155057Y-190021485D02*
X185238390Y-190116723D01*
X185131247Y-190211961D01*
X185047914Y-190116723D01*
X185155057Y-190021485D01*
X185131247Y-190211961D01*
X185286009Y-188973866D02*
X185369342Y-189069104D01*
X185262200Y-189164342D01*
X185178866Y-189069104D01*
X185286009Y-188973866D01*
X185262200Y-189164342D01*
D10*
D11*
X178934342Y-185600057D02*
X178434342Y-185600057D01*
X178434342Y-186385771D02*
X178434342Y-184885771D01*
X179148628Y-184885771D01*
X179720057Y-186385771D02*
X179720057Y-185385771D01*
X179720057Y-184885771D02*
X179648628Y-184957200D01*
X179720057Y-185028628D01*
X179791485Y-184957200D01*
X179720057Y-184885771D01*
X179720057Y-185028628D01*
X180648628Y-186385771D02*
X180505771Y-186314342D01*
X180434342Y-186171485D01*
X180434342Y-184885771D01*
X181791485Y-186314342D02*
X181648628Y-186385771D01*
X181362914Y-186385771D01*
X181220057Y-186314342D01*
X181148628Y-186171485D01*
X181148628Y-185600057D01*
X181220057Y-185457200D01*
X181362914Y-185385771D01*
X181648628Y-185385771D01*
X181791485Y-185457200D01*
X181862914Y-185600057D01*
X181862914Y-185742914D01*
X181148628Y-185885771D01*
X182505771Y-186242914D02*
X182577200Y-186314342D01*
X182505771Y-186385771D01*
X182434342Y-186314342D01*
X182505771Y-186242914D01*
X182505771Y-186385771D01*
X182505771Y-185457200D02*
X182577200Y-185528628D01*
X182505771Y-185600057D01*
X182434342Y-185528628D01*
X182505771Y-185457200D01*
X182505771Y-185600057D01*
X184362914Y-185600057D02*
X184862914Y-185600057D01*
X185077200Y-186385771D02*
X184362914Y-186385771D01*
X184362914Y-184885771D01*
X185077200Y-184885771D01*
X185648628Y-186314342D02*
X185791485Y-186385771D01*
X186077200Y-186385771D01*
X186220057Y-186314342D01*
X186291485Y-186171485D01*
X186291485Y-186100057D01*
X186220057Y-185957200D01*
X186077200Y-185885771D01*
X185862914Y-185885771D01*
X185720057Y-185814342D01*
X185648628Y-185671485D01*
X185648628Y-185600057D01*
X185720057Y-185457200D01*
X185862914Y-185385771D01*
X186077200Y-185385771D01*
X186220057Y-185457200D01*
X187577200Y-185385771D02*
X187577200Y-186885771D01*
X187577200Y-186314342D02*
X187434342Y-186385771D01*
X187148628Y-186385771D01*
X187005771Y-186314342D01*
X186934342Y-186242914D01*
X186862914Y-186100057D01*
X186862914Y-185671485D01*
X186934342Y-185528628D01*
X187005771Y-185457200D01*
X187148628Y-185385771D01*
X187434342Y-185385771D01*
X187577200Y-185457200D01*
X188934342Y-185385771D02*
X188934342Y-186385771D01*
X188291485Y-185385771D02*
X188291485Y-186171485D01*
X188362914Y-186314342D01*
X188505771Y-186385771D01*
X188720057Y-186385771D01*
X188862914Y-186314342D01*
X188934342Y-186242914D01*
X190220057Y-186314342D02*
X190077200Y-186385771D01*
X189791485Y-186385771D01*
X189648628Y-186314342D01*
X189577200Y-186171485D01*
X189577200Y-185600057D01*
X189648628Y-185457200D01*
X189791485Y-185385771D01*
X190077200Y-185385771D01*
X190220057Y-185457200D01*
X190291485Y-185600057D01*
X190291485Y-185742914D01*
X189577200Y-185885771D01*
X190934342Y-186385771D02*
X190934342Y-185385771D01*
X190934342Y-185528628D02*
X191005771Y-185457200D01*
X191148628Y-185385771D01*
X191362914Y-185385771D01*
X191505771Y-185457200D01*
X191577200Y-185600057D01*
X191577200Y-186385771D01*
X191577200Y-185600057D02*
X191648628Y-185457200D01*
X191791485Y-185385771D01*
X192005771Y-185385771D01*
X192148628Y-185457200D01*
X192220057Y-185600057D01*
X192220057Y-186385771D01*
X193577200Y-186385771D02*
X193577200Y-185600057D01*
X193505771Y-185457200D01*
X193362914Y-185385771D01*
X193077200Y-185385771D01*
X192934342Y-185457200D01*
X193577200Y-186314342D02*
X193434342Y-186385771D01*
X193077200Y-186385771D01*
X192934342Y-186314342D01*
X192862914Y-186171485D01*
X192862914Y-186028628D01*
X192934342Y-185885771D01*
X193077200Y-185814342D01*
X193434342Y-185814342D01*
X193577200Y-185742914D01*
X194077200Y-185385771D02*
X194648628Y-185385771D01*
X194291485Y-184885771D02*
X194291485Y-186171485D01*
X194362914Y-186314342D01*
X194505771Y-186385771D01*
X194648628Y-186385771D01*
X195148628Y-186385771D02*
X195148628Y-185385771D01*
X195148628Y-184885771D02*
X195077200Y-184957200D01*
X195148628Y-185028628D01*
X195220057Y-184957200D01*
X195148628Y-184885771D01*
X195148628Y-185028628D01*
X196505771Y-186314342D02*
X196362914Y-186385771D01*
X196077200Y-186385771D01*
X195934342Y-186314342D01*
X195862914Y-186242914D01*
X195791485Y-186100057D01*
X195791485Y-185671485D01*
X195862914Y-185528628D01*
X195934342Y-185457200D01*
X196077200Y-185385771D01*
X196362914Y-185385771D01*
X196505771Y-185457200D01*
X197362914Y-186385771D02*
X197220057Y-186314342D01*
X197148628Y-186242914D01*
X197077200Y-186100057D01*
X197077200Y-185671485D01*
X197148628Y-185528628D01*
X197220057Y-185457200D01*
X197362914Y-185385771D01*
X197577200Y-185385771D01*
X197720057Y-185457200D01*
X197791485Y-185528628D01*
X197862914Y-185671485D01*
X197862914Y-186100057D01*
X197791485Y-186242914D01*
X197720057Y-186314342D01*
X197577200Y-186385771D01*
X197362914Y-186385771D01*
X198505771Y-186242914D02*
X198577200Y-186314342D01*
X198505771Y-186385771D01*
X198434342Y-186314342D01*
X198505771Y-186242914D01*
X198505771Y-186385771D01*
X199220057Y-186385771D02*
X199220057Y-184885771D01*
X199362914Y-185814342D02*
X199791485Y-186385771D01*
X199791485Y-185385771D02*
X199220057Y-185957200D01*
X200434342Y-186385771D02*
X200434342Y-185385771D01*
X200434342Y-184885771D02*
X200362914Y-184957200D01*
X200434342Y-185028628D01*
X200505771Y-184957200D01*
X200434342Y-184885771D01*
X200434342Y-185028628D01*
X201791485Y-186314342D02*
X201648628Y-186385771D01*
X201362914Y-186385771D01*
X201220057Y-186314342D01*
X201148628Y-186242914D01*
X201077200Y-186100057D01*
X201077200Y-185671485D01*
X201148628Y-185528628D01*
X201220057Y-185457200D01*
X201362914Y-185385771D01*
X201648628Y-185385771D01*
X201791485Y-185457200D01*
X203077200Y-186385771D02*
X203077200Y-185600057D01*
X203005771Y-185457200D01*
X202862914Y-185385771D01*
X202577200Y-185385771D01*
X202434342Y-185457200D01*
X203077200Y-186314342D02*
X202934342Y-186385771D01*
X202577200Y-186385771D01*
X202434342Y-186314342D01*
X202362914Y-186171485D01*
X202362914Y-186028628D01*
X202434342Y-185885771D01*
X202577200Y-185814342D01*
X202934342Y-185814342D01*
X203077200Y-185742914D01*
X204434342Y-186385771D02*
X204434342Y-184885771D01*
X204434342Y-186314342D02*
X204291485Y-186385771D01*
X204005771Y-186385771D01*
X203862914Y-186314342D01*
X203791485Y-186242914D01*
X203720057Y-186100057D01*
X203720057Y-185671485D01*
X203791485Y-185528628D01*
X203862914Y-185457200D01*
X204005771Y-185385771D01*
X204291485Y-185385771D01*
X204434342Y-185457200D01*
X204791485Y-186528628D02*
X205934342Y-186528628D01*
X206291485Y-185385771D02*
X206291485Y-186885771D01*
X206291485Y-185457200D02*
X206434342Y-185385771D01*
X206720057Y-185385771D01*
X206862914Y-185457200D01*
X206934342Y-185528628D01*
X207005771Y-185671485D01*
X207005771Y-186100057D01*
X206934342Y-186242914D01*
X206862914Y-186314342D01*
X206720057Y-186385771D01*
X206434342Y-186385771D01*
X206291485Y-186314342D01*
X208291485Y-186314342D02*
X208148628Y-186385771D01*
X207862914Y-186385771D01*
X207720057Y-186314342D01*
X207648628Y-186242914D01*
X207577200Y-186100057D01*
X207577200Y-185671485D01*
X207648628Y-185528628D01*
X207720057Y-185457200D01*
X207862914Y-185385771D01*
X208148628Y-185385771D01*
X208291485Y-185457200D01*
X208934342Y-186385771D02*
X208934342Y-184885771D01*
X208934342Y-185457200D02*
X209077200Y-185385771D01*
X209362914Y-185385771D01*
X209505771Y-185457200D01*
X209577200Y-185528628D01*
X209648628Y-185671485D01*
X209648628Y-186100057D01*
X209577200Y-186242914D01*
X209505771Y-186314342D01*
X209362914Y-186385771D01*
X209077200Y-186385771D01*
X208934342Y-186314342D01*
D10*
D11*
X177002200Y-181507200D02*
X285002200Y-181507200D01*
D10*
D11*
X178362914Y-183614342D02*
X178577200Y-183685771D01*
X178934342Y-183685771D01*
X179077200Y-183614342D01*
X179148628Y-183542914D01*
X179220057Y-183400057D01*
X179220057Y-183257200D01*
X179148628Y-183114342D01*
X179077200Y-183042914D01*
X178934342Y-182971485D01*
X178648628Y-182900057D01*
X178505771Y-182828628D01*
X178434342Y-182757200D01*
X178362914Y-182614342D01*
X178362914Y-182471485D01*
X178434342Y-182328628D01*
X178505771Y-182257200D01*
X178648628Y-182185771D01*
X179005771Y-182185771D01*
X179220057Y-182257200D01*
X179862914Y-183685771D02*
X179862914Y-182185771D01*
X180505771Y-183685771D02*
X180505771Y-182900057D01*
X180434342Y-182757200D01*
X180291485Y-182685771D01*
X180077200Y-182685771D01*
X179934342Y-182757200D01*
X179862914Y-182828628D01*
X181791485Y-183614342D02*
X181648628Y-183685771D01*
X181362914Y-183685771D01*
X181220057Y-183614342D01*
X181148628Y-183471485D01*
X181148628Y-182900057D01*
X181220057Y-182757200D01*
X181362914Y-182685771D01*
X181648628Y-182685771D01*
X181791485Y-182757200D01*
X181862914Y-182900057D01*
X181862914Y-183042914D01*
X181148628Y-183185771D01*
X183077200Y-183614342D02*
X182934342Y-183685771D01*
X182648628Y-183685771D01*
X182505771Y-183614342D01*
X182434342Y-183471485D01*
X182434342Y-182900057D01*
X182505771Y-182757200D01*
X182648628Y-182685771D01*
X182934342Y-182685771D01*
X183077200Y-182757200D01*
X183148628Y-182900057D01*
X183148628Y-183042914D01*
X182434342Y-183185771D01*
X183577200Y-182685771D02*
X184148628Y-182685771D01*
X183791485Y-182185771D02*
X183791485Y-183471485D01*
X183862914Y-183614342D01*
X184005771Y-183685771D01*
X184148628Y-183685771D01*
X184648628Y-183542914D02*
X184720057Y-183614342D01*
X184648628Y-183685771D01*
X184577200Y-183614342D01*
X184648628Y-183542914D01*
X184648628Y-183685771D01*
X184648628Y-182757200D02*
X184720057Y-182828628D01*
X184648628Y-182900057D01*
X184577200Y-182828628D01*
X184648628Y-182757200D01*
X184648628Y-182900057D01*
D10*
D12*
D10*
D11*
D10*
D11*
D10*
D11*
D10*
D11*
D10*
D11*
X197002200Y-191507200D02*
X197002200Y-194507200D01*
D10*
D11*
X261002200Y-191507200D02*
X261002200Y-198007200D01*
D14*
X149062500Y-111790000D03*
D15*
X149062500Y-114330000D03*
X149062500Y-116870000D03*
X149062500Y-119410000D03*
X149062500Y-121950000D03*
X149062500Y-124490000D03*
X149062500Y-127030000D03*
X149062500Y-129570000D03*
X156682500Y-129570000D03*
X156682500Y-127030000D03*
X156682500Y-124490000D03*
X156682500Y-121950000D03*
X156682500Y-119410000D03*
X156682500Y-116870000D03*
X156682500Y-114330000D03*
X156682500Y-111790000D03*
D16*
X157502500Y-89625000D03*
X157402500Y-96249500D03*
X161802500Y-82425000D03*
X147202500Y-96325000D03*
X142602500Y-96325000D03*
X144802500Y-100825000D03*
X136902500Y-98325000D03*
X146802500Y-119525000D03*
X161040201Y-98025000D03*
X149902500Y-94225000D03*
X153302500Y-98425000D03*
X137402500Y-104225000D03*
X155402500Y-98425000D03*
X143702500Y-94325000D03*
X168202500Y-94825000D03*
X138602500Y-119525000D03*
X168302500Y-90425000D03*
X152802500Y-101725000D03*
X169002500Y-97625000D03*
X149502500Y-106325000D03*
X173202500Y-68025000D03*
X129602500Y-69725000D03*
X150578000Y-101725000D03*
X158502500Y-105425000D03*
X154702500Y-94225000D03*
D17*
X161802500Y-85325000D02*
X157502500Y-89625000D01*
X147202500Y-96325000D02*
X142602500Y-96325000D01*
X157402500Y-96249500D02*
X157402500Y-89725000D01*
X157402500Y-89725000D02*
X157502500Y-89625000D01*
X161802500Y-82425000D02*
X161802500Y-85325000D01*
X161102500Y-97962701D02*
X161040201Y-98025000D01*
X135102500Y-101925000D02*
X135102500Y-98725000D01*
X168202500Y-94825000D02*
X163578000Y-94825000D01*
X135102500Y-98725000D02*
X135502500Y-98325000D01*
X135502500Y-98325000D02*
X136902500Y-98325000D01*
X161102500Y-97300500D02*
X161102500Y-97962701D01*
X149902500Y-94225000D02*
X143802500Y-94225000D01*
X144802500Y-100825000D02*
X142302500Y-98325000D01*
X168302500Y-94725000D02*
X168202500Y-94825000D01*
X143802500Y-94225000D02*
X143702500Y-94325000D01*
X142302500Y-98325000D02*
X136902500Y-98325000D01*
X137402500Y-104225000D02*
X135102500Y-101925000D01*
X155402500Y-98425000D02*
X153302500Y-98425000D01*
X163578000Y-94825000D02*
X161102500Y-97300500D01*
X168302500Y-90425000D02*
X168302500Y-94725000D01*
X146802500Y-119525000D02*
X138602500Y-119525000D01*
X152902500Y-113525000D02*
X154637500Y-111790000D01*
X152902500Y-125730000D02*
X152902500Y-113525000D01*
X149062500Y-129570000D02*
X152902500Y-125730000D01*
X154637500Y-111790000D02*
X156682500Y-111790000D01*
X165302500Y-101325000D02*
X169002500Y-97625000D01*
X152802500Y-101725000D02*
X153202500Y-101325000D01*
X153202500Y-101325000D02*
X165302500Y-101325000D01*
X165302500Y-99925000D02*
X152302500Y-99925000D01*
X174202500Y-68525000D02*
X174202500Y-91025000D01*
X174202500Y-91025000D02*
X165302500Y-99925000D01*
X173702500Y-68025000D02*
X174202500Y-68525000D01*
X152002500Y-100225000D02*
X152002500Y-103825000D01*
X152002500Y-103825000D02*
X149502500Y-106325000D01*
X152302500Y-99925000D02*
X152002500Y-100225000D01*
X173202500Y-68025000D02*
X173702500Y-68025000D01*
X150578000Y-94574805D02*
X150627500Y-94525305D01*
X129602500Y-72025000D02*
X129602500Y-69725000D01*
X150578000Y-101725000D02*
X150578000Y-94574805D01*
X150627500Y-94525305D02*
X150627500Y-93050000D01*
X150627500Y-93050000D02*
X129602500Y-72025000D01*
X154187500Y-116825000D02*
X154187500Y-124535000D01*
X156682500Y-114330000D02*
X154187500Y-116825000D01*
X156682500Y-114330000D02*
X158502500Y-112510000D01*
X158502500Y-112510000D02*
X158502500Y-105425000D01*
X154187500Y-124535000D02*
X156682500Y-127030000D01*
X151302500Y-97625000D02*
X154702500Y-94225000D01*
X151302500Y-103525000D02*
X151302500Y-97625000D01*
X149062500Y-111790000D02*
X148402500Y-111130000D01*
X150677195Y-104125000D02*
X150702500Y-104125000D01*
X150702500Y-104125000D02*
X151302500Y-103525000D01*
X148402500Y-111130000D02*
X148402500Y-106399695D01*
X148402500Y-106399695D02*
X150677195Y-104125000D01*
G04 #@! TA.AperFunction,Conductor*
G36*
X186644621Y-61245002D02*
G01*
X186691114Y-61298658D01*
X186702500Y-61351000D01*
X186702500Y-151799000D01*
X186682498Y-151867121D01*
X186628842Y-151913614D01*
X186576500Y-151925000D01*
X102328917Y-151925000D01*
X102260796Y-151904998D01*
X102214303Y-151851342D01*
X102202918Y-151798583D01*
X102227535Y-144356223D01*
X102229969Y-143620487D01*
X151954000Y-143620487D01*
X151993706Y-143807288D01*
X152071382Y-143981752D01*
X152183634Y-144136253D01*
X152325556Y-144264040D01*
X152490944Y-144359527D01*
X152672572Y-144418542D01*
X152679133Y-144419232D01*
X152679135Y-144419232D01*
X152732389Y-144424829D01*
X152814890Y-144433500D01*
X152910110Y-144433500D01*
X152992611Y-144424829D01*
X153045865Y-144419232D01*
X153045867Y-144419232D01*
X153052428Y-144418542D01*
X153234056Y-144359527D01*
X153399444Y-144264040D01*
X153541366Y-144136253D01*
X153653618Y-143981752D01*
X153731294Y-143807288D01*
X153771000Y-143620487D01*
X153771000Y-143429513D01*
X153731294Y-143242712D01*
X153653618Y-143068248D01*
X153541366Y-142913747D01*
X153399444Y-142785960D01*
X153234056Y-142690473D01*
X153052428Y-142631458D01*
X153045867Y-142630768D01*
X153045865Y-142630768D01*
X152992611Y-142625171D01*
X152910110Y-142616500D01*
X152814890Y-142616500D01*
X152732389Y-142625171D01*
X152679135Y-142630768D01*
X152679133Y-142630768D01*
X152672572Y-142631458D01*
X152490944Y-142690473D01*
X152325556Y-142785960D01*
X152183634Y-142913747D01*
X152071382Y-143068248D01*
X151993706Y-143242712D01*
X151954000Y-143429513D01*
X151954000Y-143620487D01*
X102229969Y-143620487D01*
X102276442Y-129570000D01*
X147749002Y-129570000D01*
X147768957Y-129798087D01*
X147828216Y-130019243D01*
X147830539Y-130024224D01*
X147830539Y-130024225D01*
X147922651Y-130221762D01*
X147922654Y-130221767D01*
X147924977Y-130226749D01*
X148056302Y-130414300D01*
X148218200Y-130576198D01*
X148222708Y-130579355D01*
X148222711Y-130579357D01*
X148300889Y-130634098D01*
X148405751Y-130707523D01*
X148410733Y-130709846D01*
X148410738Y-130709849D01*
X148608275Y-130801961D01*
X148613257Y-130804284D01*
X148618565Y-130805706D01*
X148618567Y-130805707D01*
X148829098Y-130862119D01*
X148829100Y-130862119D01*
X148834413Y-130863543D01*
X149062500Y-130883498D01*
X149290587Y-130863543D01*
X149295900Y-130862119D01*
X149295902Y-130862119D01*
X149506433Y-130805707D01*
X149506435Y-130805706D01*
X149511743Y-130804284D01*
X149516725Y-130801961D01*
X149714262Y-130709849D01*
X149714267Y-130709846D01*
X149719249Y-130707523D01*
X149824111Y-130634098D01*
X149902289Y-130579357D01*
X149902292Y-130579355D01*
X149906800Y-130576198D01*
X150068698Y-130414300D01*
X150200023Y-130226749D01*
X150202346Y-130221767D01*
X150202349Y-130221762D01*
X150294461Y-130024225D01*
X150294461Y-130024224D01*
X150296784Y-130019243D01*
X150356043Y-129798087D01*
X150375998Y-129570000D01*
X150356043Y-129341913D01*
X150354619Y-129336598D01*
X150354618Y-129336591D01*
X150339041Y-129278459D01*
X150340730Y-129207483D01*
X150371652Y-129156752D01*
X153294753Y-126233652D01*
X153303039Y-126226112D01*
X153309518Y-126222000D01*
X153356144Y-126172348D01*
X153358898Y-126169507D01*
X153378635Y-126149770D01*
X153381115Y-126146573D01*
X153388820Y-126137551D01*
X153413659Y-126111100D01*
X153419086Y-126105321D01*
X153422905Y-126098375D01*
X153422907Y-126098372D01*
X153428848Y-126087566D01*
X153439699Y-126071047D01*
X153447258Y-126061301D01*
X153452114Y-126055041D01*
X153455259Y-126047772D01*
X153455262Y-126047768D01*
X153469674Y-126014463D01*
X153474891Y-126003813D01*
X153496195Y-125965060D01*
X153501233Y-125945437D01*
X153507637Y-125926734D01*
X153512533Y-125915420D01*
X153512533Y-125915419D01*
X153515681Y-125908145D01*
X153516920Y-125900322D01*
X153516923Y-125900312D01*
X153522599Y-125864476D01*
X153525005Y-125852856D01*
X153534028Y-125817711D01*
X153534028Y-125817710D01*
X153536000Y-125810030D01*
X153536000Y-125789776D01*
X153537551Y-125770065D01*
X153539480Y-125757886D01*
X153540720Y-125750057D01*
X153536559Y-125706038D01*
X153536000Y-125694181D01*
X153536000Y-125085976D01*
X153556002Y-125017855D01*
X153609658Y-124971362D01*
X153679932Y-124961258D01*
X153742314Y-124988890D01*
X153756103Y-125000297D01*
X153764884Y-125008288D01*
X155373348Y-126616752D01*
X155407374Y-126679064D01*
X155405959Y-126738459D01*
X155390382Y-126796591D01*
X155390381Y-126796598D01*
X155388957Y-126801913D01*
X155369002Y-127030000D01*
X155388957Y-127258087D01*
X155448216Y-127479243D01*
X155450539Y-127484224D01*
X155450539Y-127484225D01*
X155542651Y-127681762D01*
X155542654Y-127681767D01*
X155544977Y-127686749D01*
X155676302Y-127874300D01*
X155838200Y-128036198D01*
X155842708Y-128039355D01*
X155842711Y-128039357D01*
X155920889Y-128094098D01*
X156025751Y-128167523D01*
X156030733Y-128169846D01*
X156030738Y-128169849D01*
X156064957Y-128185805D01*
X156118242Y-128232722D01*
X156137703Y-128300999D01*
X156117161Y-128368959D01*
X156064957Y-128414195D01*
X156030738Y-128430151D01*
X156030733Y-128430154D01*
X156025751Y-128432477D01*
X155920889Y-128505902D01*
X155842711Y-128560643D01*
X155842708Y-128560645D01*
X155838200Y-128563802D01*
X155676302Y-128725700D01*
X155544977Y-128913251D01*
X155542654Y-128918233D01*
X155542651Y-128918238D01*
X155450539Y-129115775D01*
X155448216Y-129120757D01*
X155446794Y-129126065D01*
X155446793Y-129126067D01*
X155390383Y-129336591D01*
X155388957Y-129341913D01*
X155369002Y-129570000D01*
X155388957Y-129798087D01*
X155448216Y-130019243D01*
X155450539Y-130024224D01*
X155450539Y-130024225D01*
X155542651Y-130221762D01*
X155542654Y-130221767D01*
X155544977Y-130226749D01*
X155676302Y-130414300D01*
X155838200Y-130576198D01*
X155842708Y-130579355D01*
X155842711Y-130579357D01*
X155920889Y-130634098D01*
X156025751Y-130707523D01*
X156030733Y-130709846D01*
X156030738Y-130709849D01*
X156228275Y-130801961D01*
X156233257Y-130804284D01*
X156238565Y-130805706D01*
X156238567Y-130805707D01*
X156449098Y-130862119D01*
X156449100Y-130862119D01*
X156454413Y-130863543D01*
X156682500Y-130883498D01*
X156910587Y-130863543D01*
X156915900Y-130862119D01*
X156915902Y-130862119D01*
X157126433Y-130805707D01*
X157126435Y-130805706D01*
X157131743Y-130804284D01*
X157136725Y-130801961D01*
X157334262Y-130709849D01*
X157334267Y-130709846D01*
X157339249Y-130707523D01*
X157444111Y-130634098D01*
X157522289Y-130579357D01*
X157522292Y-130579355D01*
X157526800Y-130576198D01*
X157688698Y-130414300D01*
X157820023Y-130226749D01*
X157822346Y-130221767D01*
X157822349Y-130221762D01*
X157914461Y-130024225D01*
X157914461Y-130024224D01*
X157916784Y-130019243D01*
X157976043Y-129798087D01*
X157995998Y-129570000D01*
X157976043Y-129341913D01*
X157974617Y-129336591D01*
X157918207Y-129126067D01*
X157918206Y-129126065D01*
X157916784Y-129120757D01*
X157914461Y-129115775D01*
X157822349Y-128918238D01*
X157822346Y-128918233D01*
X157820023Y-128913251D01*
X157688698Y-128725700D01*
X157526800Y-128563802D01*
X157522292Y-128560645D01*
X157522289Y-128560643D01*
X157444111Y-128505902D01*
X157339249Y-128432477D01*
X157334267Y-128430154D01*
X157334262Y-128430151D01*
X157300043Y-128414195D01*
X157246758Y-128367278D01*
X157227297Y-128299001D01*
X157247839Y-128231041D01*
X157300043Y-128185805D01*
X157334262Y-128169849D01*
X157334267Y-128169846D01*
X157339249Y-128167523D01*
X157444111Y-128094098D01*
X157522289Y-128039357D01*
X157522292Y-128039355D01*
X157526800Y-128036198D01*
X157688698Y-127874300D01*
X157820023Y-127686749D01*
X157822346Y-127681767D01*
X157822349Y-127681762D01*
X157914461Y-127484225D01*
X157914461Y-127484224D01*
X157916784Y-127479243D01*
X157976043Y-127258087D01*
X157995998Y-127030000D01*
X157976043Y-126801913D01*
X157974617Y-126796591D01*
X157918207Y-126586067D01*
X157918206Y-126586065D01*
X157916784Y-126580757D01*
X157914461Y-126575775D01*
X157822349Y-126378238D01*
X157822346Y-126378233D01*
X157820023Y-126373251D01*
X157746598Y-126268389D01*
X157691857Y-126190211D01*
X157691855Y-126190208D01*
X157688698Y-126185700D01*
X157526800Y-126023802D01*
X157522292Y-126020645D01*
X157522289Y-126020643D01*
X157442908Y-125965060D01*
X157339249Y-125892477D01*
X157334267Y-125890154D01*
X157334262Y-125890151D01*
X157300043Y-125874195D01*
X157246758Y-125827278D01*
X157227297Y-125759001D01*
X157247839Y-125691041D01*
X157300043Y-125645805D01*
X157334262Y-125629849D01*
X157334267Y-125629846D01*
X157339249Y-125627523D01*
X157444111Y-125554098D01*
X157522289Y-125499357D01*
X157522292Y-125499355D01*
X157526800Y-125496198D01*
X157688698Y-125334300D01*
X157820023Y-125146749D01*
X157822346Y-125141767D01*
X157822349Y-125141762D01*
X157914461Y-124944225D01*
X157914461Y-124944224D01*
X157916784Y-124939243D01*
X157920236Y-124926362D01*
X157974619Y-124723402D01*
X157974619Y-124723400D01*
X157976043Y-124718087D01*
X157995998Y-124490000D01*
X157976043Y-124261913D01*
X157974619Y-124256598D01*
X157918207Y-124046067D01*
X157918206Y-124046065D01*
X157916784Y-124040757D01*
X157914461Y-124035775D01*
X157822349Y-123838238D01*
X157822346Y-123838233D01*
X157820023Y-123833251D01*
X157688698Y-123645700D01*
X157526800Y-123483802D01*
X157522292Y-123480645D01*
X157522289Y-123480643D01*
X157444111Y-123425902D01*
X157339249Y-123352477D01*
X157334267Y-123350154D01*
X157334262Y-123350151D01*
X157299451Y-123333919D01*
X157246166Y-123287002D01*
X157226705Y-123218725D01*
X157247247Y-123150765D01*
X157299451Y-123105529D01*
X157334011Y-123089414D01*
X157343507Y-123083931D01*
X157521967Y-122958972D01*
X157530375Y-122951916D01*
X157684416Y-122797875D01*
X157691472Y-122789467D01*
X157816431Y-122611007D01*
X157821914Y-122601511D01*
X157913990Y-122404053D01*
X157917736Y-122393761D01*
X157963894Y-122221497D01*
X157963558Y-122207401D01*
X157955616Y-122204000D01*
X155414533Y-122204000D01*
X155401002Y-122207973D01*
X155399773Y-122216522D01*
X155447264Y-122393761D01*
X155451010Y-122404053D01*
X155543086Y-122601511D01*
X155548569Y-122611007D01*
X155673528Y-122789467D01*
X155680584Y-122797875D01*
X155834625Y-122951916D01*
X155843033Y-122958972D01*
X156021493Y-123083931D01*
X156030989Y-123089414D01*
X156065549Y-123105529D01*
X156118834Y-123152446D01*
X156138295Y-123220723D01*
X156117753Y-123288683D01*
X156065549Y-123333919D01*
X156030738Y-123350151D01*
X156030733Y-123350154D01*
X156025751Y-123352477D01*
X155920889Y-123425902D01*
X155842711Y-123480643D01*
X155842708Y-123480645D01*
X155838200Y-123483802D01*
X155676302Y-123645700D01*
X155544977Y-123833251D01*
X155542654Y-123838233D01*
X155542651Y-123838238D01*
X155450539Y-124035775D01*
X155448216Y-124040757D01*
X155446794Y-124046065D01*
X155446793Y-124046067D01*
X155390381Y-124256598D01*
X155388957Y-124261913D01*
X155369002Y-124490000D01*
X155369481Y-124495475D01*
X155369481Y-124495485D01*
X155370526Y-124507428D01*
X155356538Y-124577033D01*
X155307139Y-124628026D01*
X155238014Y-124644217D01*
X155171108Y-124620465D01*
X155155911Y-124607506D01*
X154857905Y-124309500D01*
X154823879Y-124247188D01*
X154821000Y-124220405D01*
X154821000Y-119676522D01*
X155399773Y-119676522D01*
X155447264Y-119853761D01*
X155451010Y-119864053D01*
X155543086Y-120061511D01*
X155548569Y-120071007D01*
X155673528Y-120249467D01*
X155680584Y-120257875D01*
X155834625Y-120411916D01*
X155843033Y-120418972D01*
X156021493Y-120543931D01*
X156030989Y-120549414D01*
X156066141Y-120565805D01*
X156119426Y-120612722D01*
X156138887Y-120680999D01*
X156118345Y-120748959D01*
X156066141Y-120794195D01*
X156030989Y-120810586D01*
X156021493Y-120816069D01*
X155843033Y-120941028D01*
X155834625Y-120948084D01*
X155680584Y-121102125D01*
X155673528Y-121110533D01*
X155548569Y-121288993D01*
X155543086Y-121298489D01*
X155451010Y-121495947D01*
X155447264Y-121506239D01*
X155401106Y-121678503D01*
X155401442Y-121692599D01*
X155409384Y-121696000D01*
X156410385Y-121696000D01*
X156425624Y-121691525D01*
X156426829Y-121690135D01*
X156428500Y-121682452D01*
X156428500Y-121677885D01*
X156936500Y-121677885D01*
X156940975Y-121693124D01*
X156942365Y-121694329D01*
X156950048Y-121696000D01*
X157950467Y-121696000D01*
X157963998Y-121692027D01*
X157965227Y-121683478D01*
X157917736Y-121506239D01*
X157913990Y-121495947D01*
X157821914Y-121298489D01*
X157816431Y-121288993D01*
X157691472Y-121110533D01*
X157684416Y-121102125D01*
X157530375Y-120948084D01*
X157521967Y-120941028D01*
X157343507Y-120816069D01*
X157334011Y-120810586D01*
X157298859Y-120794195D01*
X157245574Y-120747278D01*
X157226113Y-120679001D01*
X157246655Y-120611041D01*
X157298859Y-120565805D01*
X157334011Y-120549414D01*
X157343507Y-120543931D01*
X157521967Y-120418972D01*
X157530375Y-120411916D01*
X157684416Y-120257875D01*
X157691472Y-120249467D01*
X157816431Y-120071007D01*
X157821914Y-120061511D01*
X157913990Y-119864053D01*
X157917736Y-119853761D01*
X157963894Y-119681497D01*
X157963558Y-119667401D01*
X157955616Y-119664000D01*
X156954615Y-119664000D01*
X156939376Y-119668475D01*
X156938171Y-119669865D01*
X156936500Y-119677548D01*
X156936500Y-121677885D01*
X156428500Y-121677885D01*
X156428500Y-119682115D01*
X156424025Y-119666876D01*
X156422635Y-119665671D01*
X156414952Y-119664000D01*
X155414533Y-119664000D01*
X155401002Y-119667973D01*
X155399773Y-119676522D01*
X154821000Y-119676522D01*
X154821000Y-117139594D01*
X154841002Y-117071473D01*
X154857905Y-117050499D01*
X155155911Y-116752493D01*
X155218223Y-116718467D01*
X155289038Y-116723532D01*
X155345874Y-116766079D01*
X155370685Y-116832599D01*
X155370526Y-116852570D01*
X155369481Y-116864514D01*
X155369481Y-116864525D01*
X155369002Y-116870000D01*
X155388957Y-117098087D01*
X155448216Y-117319243D01*
X155450539Y-117324224D01*
X155450539Y-117324225D01*
X155542651Y-117521762D01*
X155542654Y-117521767D01*
X155544977Y-117526749D01*
X155676302Y-117714300D01*
X155838200Y-117876198D01*
X155842708Y-117879355D01*
X155842711Y-117879357D01*
X155920889Y-117934098D01*
X156025751Y-118007523D01*
X156030733Y-118009846D01*
X156030738Y-118009849D01*
X156065549Y-118026081D01*
X156118834Y-118072998D01*
X156138295Y-118141275D01*
X156117753Y-118209235D01*
X156065549Y-118254471D01*
X156030989Y-118270586D01*
X156021493Y-118276069D01*
X155843033Y-118401028D01*
X155834625Y-118408084D01*
X155680584Y-118562125D01*
X155673528Y-118570533D01*
X155548569Y-118748993D01*
X155543086Y-118758489D01*
X155451010Y-118955947D01*
X155447264Y-118966239D01*
X155401106Y-119138503D01*
X155401442Y-119152599D01*
X155409384Y-119156000D01*
X157950467Y-119156000D01*
X157963998Y-119152027D01*
X157965227Y-119143478D01*
X157917736Y-118966239D01*
X157913990Y-118955947D01*
X157821914Y-118758489D01*
X157816431Y-118748993D01*
X157691472Y-118570533D01*
X157684416Y-118562125D01*
X157530375Y-118408084D01*
X157521967Y-118401028D01*
X157343507Y-118276069D01*
X157334011Y-118270586D01*
X157299451Y-118254471D01*
X157246166Y-118207554D01*
X157226705Y-118139277D01*
X157247247Y-118071317D01*
X157299451Y-118026081D01*
X157334262Y-118009849D01*
X157334267Y-118009846D01*
X157339249Y-118007523D01*
X157444111Y-117934098D01*
X157522289Y-117879357D01*
X157522292Y-117879355D01*
X157526800Y-117876198D01*
X157688698Y-117714300D01*
X157820023Y-117526749D01*
X157822346Y-117521767D01*
X157822349Y-117521762D01*
X157914461Y-117324225D01*
X157914461Y-117324224D01*
X157916784Y-117319243D01*
X157976043Y-117098087D01*
X157995998Y-116870000D01*
X157976043Y-116641913D01*
X157916784Y-116420757D01*
X157875863Y-116333000D01*
X157822349Y-116218238D01*
X157822346Y-116218233D01*
X157820023Y-116213251D01*
X157688698Y-116025700D01*
X157526800Y-115863802D01*
X157522292Y-115860645D01*
X157522289Y-115860643D01*
X157444111Y-115805902D01*
X157339249Y-115732477D01*
X157334267Y-115730154D01*
X157334262Y-115730151D01*
X157300043Y-115714195D01*
X157246758Y-115667278D01*
X157227297Y-115599001D01*
X157247839Y-115531041D01*
X157300043Y-115485805D01*
X157334262Y-115469849D01*
X157334267Y-115469846D01*
X157339249Y-115467523D01*
X157444111Y-115394098D01*
X157522289Y-115339357D01*
X157522292Y-115339355D01*
X157526800Y-115336198D01*
X157688698Y-115174300D01*
X157820023Y-114986749D01*
X157822346Y-114981767D01*
X157822349Y-114981762D01*
X157914461Y-114784225D01*
X157914461Y-114784224D01*
X157916784Y-114779243D01*
X157940023Y-114692517D01*
X157974619Y-114563402D01*
X157974619Y-114563400D01*
X157976043Y-114558087D01*
X157995998Y-114330000D01*
X157976043Y-114101913D01*
X157974619Y-114096598D01*
X157974618Y-114096591D01*
X157959041Y-114038459D01*
X157960730Y-113967483D01*
X157991652Y-113916752D01*
X158894747Y-113013657D01*
X158903037Y-113006113D01*
X158909518Y-113002000D01*
X158956159Y-112952332D01*
X158958913Y-112949491D01*
X158978635Y-112929769D01*
X158981119Y-112926567D01*
X158988817Y-112917555D01*
X159013661Y-112891098D01*
X159019086Y-112885321D01*
X159028847Y-112867566D01*
X159039698Y-112851047D01*
X159052114Y-112835041D01*
X159069674Y-112794463D01*
X159074891Y-112783813D01*
X159096195Y-112745060D01*
X159101233Y-112725437D01*
X159107637Y-112706734D01*
X159112533Y-112695420D01*
X159112533Y-112695419D01*
X159115681Y-112688145D01*
X159116920Y-112680322D01*
X159116923Y-112680312D01*
X159122599Y-112644476D01*
X159125005Y-112632856D01*
X159134028Y-112597711D01*
X159134028Y-112597710D01*
X159136000Y-112590030D01*
X159136000Y-112569776D01*
X159137551Y-112550065D01*
X159139480Y-112537886D01*
X159140720Y-112530057D01*
X159136559Y-112486038D01*
X159136000Y-112474181D01*
X159136000Y-106127524D01*
X159156002Y-106059403D01*
X159168358Y-106043221D01*
X159241540Y-105961944D01*
X159337027Y-105796556D01*
X159396042Y-105614928D01*
X159416004Y-105425000D01*
X159396042Y-105235072D01*
X159337027Y-105053444D01*
X159241540Y-104888056D01*
X159113753Y-104746134D01*
X158959252Y-104633882D01*
X158953224Y-104631198D01*
X158953222Y-104631197D01*
X158790819Y-104558891D01*
X158790818Y-104558891D01*
X158784788Y-104556206D01*
X158691388Y-104536353D01*
X158604444Y-104517872D01*
X158604439Y-104517872D01*
X158597987Y-104516500D01*
X158407013Y-104516500D01*
X158400561Y-104517872D01*
X158400556Y-104517872D01*
X158313612Y-104536353D01*
X158220212Y-104556206D01*
X158214182Y-104558891D01*
X158214181Y-104558891D01*
X158051778Y-104631197D01*
X158051776Y-104631198D01*
X158045748Y-104633882D01*
X157891247Y-104746134D01*
X157763460Y-104888056D01*
X157667973Y-105053444D01*
X157608958Y-105235072D01*
X157588996Y-105425000D01*
X157608958Y-105614928D01*
X157667973Y-105796556D01*
X157763460Y-105961944D01*
X157836637Y-106043215D01*
X157867353Y-106107221D01*
X157869000Y-106127524D01*
X157869000Y-110821812D01*
X157848998Y-110889933D01*
X157795342Y-110936426D01*
X157725068Y-110946530D01*
X157660488Y-110917036D01*
X157653905Y-110910907D01*
X157526800Y-110783802D01*
X157522292Y-110780645D01*
X157522289Y-110780643D01*
X157444111Y-110725902D01*
X157339249Y-110652477D01*
X157334267Y-110650154D01*
X157334262Y-110650151D01*
X157136725Y-110558039D01*
X157136724Y-110558039D01*
X157131743Y-110555716D01*
X157126435Y-110554294D01*
X157126433Y-110554293D01*
X156915902Y-110497881D01*
X156915900Y-110497881D01*
X156910587Y-110496457D01*
X156682500Y-110476502D01*
X156454413Y-110496457D01*
X156449100Y-110497881D01*
X156449098Y-110497881D01*
X156238567Y-110554293D01*
X156238565Y-110554294D01*
X156233257Y-110555716D01*
X156228276Y-110558039D01*
X156228275Y-110558039D01*
X156030738Y-110650151D01*
X156030733Y-110650154D01*
X156025751Y-110652477D01*
X155920889Y-110725902D01*
X155842711Y-110780643D01*
X155842708Y-110780645D01*
X155838200Y-110783802D01*
X155676302Y-110945700D01*
X155673145Y-110950208D01*
X155673143Y-110950211D01*
X155566319Y-111102771D01*
X155510862Y-111147099D01*
X155463106Y-111156500D01*
X154716268Y-111156500D01*
X154705085Y-111155973D01*
X154697592Y-111154298D01*
X154689666Y-111154547D01*
X154689665Y-111154547D01*
X154629502Y-111156438D01*
X154625544Y-111156500D01*
X154597644Y-111156500D01*
X154593654Y-111157004D01*
X154581820Y-111157936D01*
X154537611Y-111159326D01*
X154529995Y-111161539D01*
X154529993Y-111161539D01*
X154518152Y-111164979D01*
X154498793Y-111168988D01*
X154497483Y-111169154D01*
X154478703Y-111171526D01*
X154471337Y-111174442D01*
X154471331Y-111174444D01*
X154437598Y-111187800D01*
X154426368Y-111191645D01*
X154391517Y-111201770D01*
X154383907Y-111203981D01*
X154377084Y-111208016D01*
X154366466Y-111214295D01*
X154348713Y-111222992D01*
X154341068Y-111226019D01*
X154329883Y-111230448D01*
X154323468Y-111235109D01*
X154294112Y-111256437D01*
X154284195Y-111262951D01*
X154246138Y-111285458D01*
X154231817Y-111299779D01*
X154216784Y-111312619D01*
X154200393Y-111324528D01*
X154195342Y-111330634D01*
X154172202Y-111358605D01*
X154164212Y-111367384D01*
X152510247Y-113021348D01*
X152501961Y-113028888D01*
X152495482Y-113033000D01*
X152490057Y-113038777D01*
X152448857Y-113082651D01*
X152446102Y-113085493D01*
X152426365Y-113105230D01*
X152423885Y-113108427D01*
X152416182Y-113117447D01*
X152385914Y-113149679D01*
X152382095Y-113156625D01*
X152382093Y-113156628D01*
X152376152Y-113167434D01*
X152365301Y-113183953D01*
X152352886Y-113199959D01*
X152349741Y-113207228D01*
X152349738Y-113207232D01*
X152335326Y-113240537D01*
X152330109Y-113251187D01*
X152308805Y-113289940D01*
X152306834Y-113297615D01*
X152306834Y-113297616D01*
X152303767Y-113309562D01*
X152297363Y-113328266D01*
X152289319Y-113346855D01*
X152288080Y-113354678D01*
X152288077Y-113354688D01*
X152282401Y-113390524D01*
X152279995Y-113402144D01*
X152269000Y-113444970D01*
X152269000Y-113465224D01*
X152267449Y-113484934D01*
X152264280Y-113504943D01*
X152265026Y-113512835D01*
X152268441Y-113548961D01*
X152269000Y-113560819D01*
X152269000Y-125415406D01*
X152248998Y-125483527D01*
X152232095Y-125504501D01*
X150589089Y-127147506D01*
X150526777Y-127181532D01*
X150455961Y-127176467D01*
X150399126Y-127133920D01*
X150374315Y-127067400D01*
X150374474Y-127047428D01*
X150375519Y-127035485D01*
X150375519Y-127035475D01*
X150375998Y-127030000D01*
X150356043Y-126801913D01*
X150354617Y-126796591D01*
X150298207Y-126586067D01*
X150298206Y-126586065D01*
X150296784Y-126580757D01*
X150294461Y-126575775D01*
X150202349Y-126378238D01*
X150202346Y-126378233D01*
X150200023Y-126373251D01*
X150126598Y-126268389D01*
X150071857Y-126190211D01*
X150071855Y-126190208D01*
X150068698Y-126185700D01*
X149906800Y-126023802D01*
X149902292Y-126020645D01*
X149902289Y-126020643D01*
X149822908Y-125965060D01*
X149719249Y-125892477D01*
X149714267Y-125890154D01*
X149714262Y-125890151D01*
X149680043Y-125874195D01*
X149626758Y-125827278D01*
X149607297Y-125759001D01*
X149627839Y-125691041D01*
X149680043Y-125645805D01*
X149714262Y-125629849D01*
X149714267Y-125629846D01*
X149719249Y-125627523D01*
X149824111Y-125554098D01*
X149902289Y-125499357D01*
X149902292Y-125499355D01*
X149906800Y-125496198D01*
X150068698Y-125334300D01*
X150200023Y-125146749D01*
X150202346Y-125141767D01*
X150202349Y-125141762D01*
X150294461Y-124944225D01*
X150294461Y-124944224D01*
X150296784Y-124939243D01*
X150300236Y-124926362D01*
X150354619Y-124723402D01*
X150354619Y-124723400D01*
X150356043Y-124718087D01*
X150375998Y-124490000D01*
X150356043Y-124261913D01*
X150354619Y-124256598D01*
X150298207Y-124046067D01*
X150298206Y-124046065D01*
X150296784Y-124040757D01*
X150294461Y-124035775D01*
X150202349Y-123838238D01*
X150202346Y-123838233D01*
X150200023Y-123833251D01*
X150068698Y-123645700D01*
X149906800Y-123483802D01*
X149902292Y-123480645D01*
X149902289Y-123480643D01*
X149824111Y-123425902D01*
X149719249Y-123352477D01*
X149714267Y-123350154D01*
X149714262Y-123350151D01*
X149679451Y-123333919D01*
X149626166Y-123287002D01*
X149606705Y-123218725D01*
X149627247Y-123150765D01*
X149679451Y-123105529D01*
X149714011Y-123089414D01*
X149723507Y-123083931D01*
X149901967Y-122958972D01*
X149910375Y-122951916D01*
X150064416Y-122797875D01*
X150071472Y-122789467D01*
X150196431Y-122611007D01*
X150201914Y-122601511D01*
X150293990Y-122404053D01*
X150297736Y-122393761D01*
X150343894Y-122221497D01*
X150343558Y-122207401D01*
X150335616Y-122204000D01*
X147794533Y-122204000D01*
X147781002Y-122207973D01*
X147779773Y-122216522D01*
X147827264Y-122393761D01*
X147831010Y-122404053D01*
X147923086Y-122601511D01*
X147928569Y-122611007D01*
X148053528Y-122789467D01*
X148060584Y-122797875D01*
X148214625Y-122951916D01*
X148223033Y-122958972D01*
X148401493Y-123083931D01*
X148410989Y-123089414D01*
X148445549Y-123105529D01*
X148498834Y-123152446D01*
X148518295Y-123220723D01*
X148497753Y-123288683D01*
X148445549Y-123333919D01*
X148410738Y-123350151D01*
X148410733Y-123350154D01*
X148405751Y-123352477D01*
X148300889Y-123425902D01*
X148222711Y-123480643D01*
X148222708Y-123480645D01*
X148218200Y-123483802D01*
X148056302Y-123645700D01*
X147924977Y-123833251D01*
X147922654Y-123838233D01*
X147922651Y-123838238D01*
X147830539Y-124035775D01*
X147828216Y-124040757D01*
X147826794Y-124046065D01*
X147826793Y-124046067D01*
X147770381Y-124256598D01*
X147768957Y-124261913D01*
X147749002Y-124490000D01*
X147768957Y-124718087D01*
X147770381Y-124723400D01*
X147770381Y-124723402D01*
X147824765Y-124926362D01*
X147828216Y-124939243D01*
X147830539Y-124944224D01*
X147830539Y-124944225D01*
X147922651Y-125141762D01*
X147922654Y-125141767D01*
X147924977Y-125146749D01*
X148056302Y-125334300D01*
X148218200Y-125496198D01*
X148222708Y-125499355D01*
X148222711Y-125499357D01*
X148300889Y-125554098D01*
X148405751Y-125627523D01*
X148410733Y-125629846D01*
X148410738Y-125629849D01*
X148444957Y-125645805D01*
X148498242Y-125692722D01*
X148517703Y-125760999D01*
X148497161Y-125828959D01*
X148444957Y-125874195D01*
X148410738Y-125890151D01*
X148410733Y-125890154D01*
X148405751Y-125892477D01*
X148302092Y-125965060D01*
X148222711Y-126020643D01*
X148222708Y-126020645D01*
X148218200Y-126023802D01*
X148056302Y-126185700D01*
X148053145Y-126190208D01*
X148053143Y-126190211D01*
X147998402Y-126268389D01*
X147924977Y-126373251D01*
X147922654Y-126378233D01*
X147922651Y-126378238D01*
X147830539Y-126575775D01*
X147828216Y-126580757D01*
X147826794Y-126586065D01*
X147826793Y-126586067D01*
X147770383Y-126796591D01*
X147768957Y-126801913D01*
X147749002Y-127030000D01*
X147768957Y-127258087D01*
X147828216Y-127479243D01*
X147830539Y-127484224D01*
X147830539Y-127484225D01*
X147922651Y-127681762D01*
X147922654Y-127681767D01*
X147924977Y-127686749D01*
X148056302Y-127874300D01*
X148218200Y-128036198D01*
X148222708Y-128039355D01*
X148222711Y-128039357D01*
X148300889Y-128094098D01*
X148405751Y-128167523D01*
X148410733Y-128169846D01*
X148410738Y-128169849D01*
X148444957Y-128185805D01*
X148498242Y-128232722D01*
X148517703Y-128300999D01*
X148497161Y-128368959D01*
X148444957Y-128414195D01*
X148410738Y-128430151D01*
X148410733Y-128430154D01*
X148405751Y-128432477D01*
X148300889Y-128505902D01*
X148222711Y-128560643D01*
X148222708Y-128560645D01*
X148218200Y-128563802D01*
X148056302Y-128725700D01*
X147924977Y-128913251D01*
X147922654Y-128918233D01*
X147922651Y-128918238D01*
X147830539Y-129115775D01*
X147828216Y-129120757D01*
X147826794Y-129126065D01*
X147826793Y-129126067D01*
X147770383Y-129336591D01*
X147768957Y-129341913D01*
X147749002Y-129570000D01*
X102276442Y-129570000D01*
X102297223Y-123287002D01*
X102309165Y-119676522D01*
X147779773Y-119676522D01*
X147827264Y-119853761D01*
X147831010Y-119864053D01*
X147923086Y-120061511D01*
X147928569Y-120071007D01*
X148053528Y-120249467D01*
X148060584Y-120257875D01*
X148214625Y-120411916D01*
X148223033Y-120418972D01*
X148401493Y-120543931D01*
X148410989Y-120549414D01*
X148446141Y-120565805D01*
X148499426Y-120612722D01*
X148518887Y-120680999D01*
X148498345Y-120748959D01*
X148446141Y-120794195D01*
X148410989Y-120810586D01*
X148401493Y-120816069D01*
X148223033Y-120941028D01*
X148214625Y-120948084D01*
X148060584Y-121102125D01*
X148053528Y-121110533D01*
X147928569Y-121288993D01*
X147923086Y-121298489D01*
X147831010Y-121495947D01*
X147827264Y-121506239D01*
X147781106Y-121678503D01*
X147781442Y-121692599D01*
X147789384Y-121696000D01*
X148790385Y-121696000D01*
X148805624Y-121691525D01*
X148806829Y-121690135D01*
X148808500Y-121682452D01*
X148808500Y-121677885D01*
X149316500Y-121677885D01*
X149320975Y-121693124D01*
X149322365Y-121694329D01*
X149330048Y-121696000D01*
X150330467Y-121696000D01*
X150343998Y-121692027D01*
X150345227Y-121683478D01*
X150297736Y-121506239D01*
X150293990Y-121495947D01*
X150201914Y-121298489D01*
X150196431Y-121288993D01*
X150071472Y-121110533D01*
X150064416Y-121102125D01*
X149910375Y-120948084D01*
X149901967Y-120941028D01*
X149723507Y-120816069D01*
X149714011Y-120810586D01*
X149678859Y-120794195D01*
X149625574Y-120747278D01*
X149606113Y-120679001D01*
X149626655Y-120611041D01*
X149678859Y-120565805D01*
X149714011Y-120549414D01*
X149723507Y-120543931D01*
X149901967Y-120418972D01*
X149910375Y-120411916D01*
X150064416Y-120257875D01*
X150071472Y-120249467D01*
X150196431Y-120071007D01*
X150201914Y-120061511D01*
X150293990Y-119864053D01*
X150297736Y-119853761D01*
X150343894Y-119681497D01*
X150343558Y-119667401D01*
X150335616Y-119664000D01*
X149334615Y-119664000D01*
X149319376Y-119668475D01*
X149318171Y-119669865D01*
X149316500Y-119677548D01*
X149316500Y-121677885D01*
X148808500Y-121677885D01*
X148808500Y-119682115D01*
X148804025Y-119666876D01*
X148802635Y-119665671D01*
X148794952Y-119664000D01*
X147794533Y-119664000D01*
X147781002Y-119667973D01*
X147779773Y-119676522D01*
X102309165Y-119676522D01*
X102386403Y-96325000D01*
X141688996Y-96325000D01*
X141689686Y-96331565D01*
X141702184Y-96450473D01*
X141708958Y-96514928D01*
X141767973Y-96696556D01*
X141863460Y-96861944D01*
X141867878Y-96866851D01*
X141867879Y-96866852D01*
X141986825Y-96998955D01*
X141991247Y-97003866D01*
X142145748Y-97116118D01*
X142151776Y-97118802D01*
X142151778Y-97118803D01*
X142314181Y-97191109D01*
X142320212Y-97193794D01*
X142413612Y-97213647D01*
X142500556Y-97232128D01*
X142500561Y-97232128D01*
X142507013Y-97233500D01*
X142697987Y-97233500D01*
X142704439Y-97232128D01*
X142704444Y-97232128D01*
X142791387Y-97213647D01*
X142884788Y-97193794D01*
X142890819Y-97191109D01*
X143053222Y-97118803D01*
X143053224Y-97118802D01*
X143059252Y-97116118D01*
X143213753Y-97003866D01*
X143218168Y-96998963D01*
X143223080Y-96994540D01*
X143224205Y-96995789D01*
X143277514Y-96962949D01*
X143310700Y-96958500D01*
X146494300Y-96958500D01*
X146562421Y-96978502D01*
X146581647Y-96994843D01*
X146581920Y-96994540D01*
X146586832Y-96998963D01*
X146591247Y-97003866D01*
X146745748Y-97116118D01*
X146751776Y-97118802D01*
X146751778Y-97118803D01*
X146914181Y-97191109D01*
X146920212Y-97193794D01*
X147013612Y-97213647D01*
X147100556Y-97232128D01*
X147100561Y-97232128D01*
X147107013Y-97233500D01*
X147297987Y-97233500D01*
X147304439Y-97232128D01*
X147304444Y-97232128D01*
X147391387Y-97213647D01*
X147484788Y-97193794D01*
X147490819Y-97191109D01*
X147653222Y-97118803D01*
X147653224Y-97118802D01*
X147659252Y-97116118D01*
X147813753Y-97003866D01*
X147818175Y-96998955D01*
X147937121Y-96866852D01*
X147937122Y-96866851D01*
X147941540Y-96861944D01*
X148037027Y-96696556D01*
X148096042Y-96514928D01*
X148102817Y-96450473D01*
X148115314Y-96331565D01*
X148116004Y-96325000D01*
X148096042Y-96135072D01*
X148037027Y-95953444D01*
X147941540Y-95788056D01*
X147813753Y-95646134D01*
X147659252Y-95533882D01*
X147653224Y-95531198D01*
X147653222Y-95531197D01*
X147490819Y-95458891D01*
X147490818Y-95458891D01*
X147484788Y-95456206D01*
X147391388Y-95436353D01*
X147304444Y-95417872D01*
X147304439Y-95417872D01*
X147297987Y-95416500D01*
X147107013Y-95416500D01*
X147100561Y-95417872D01*
X147100556Y-95417872D01*
X147013612Y-95436353D01*
X146920212Y-95456206D01*
X146914182Y-95458891D01*
X146914181Y-95458891D01*
X146751778Y-95531197D01*
X146751776Y-95531198D01*
X146745748Y-95533882D01*
X146740407Y-95537762D01*
X146740406Y-95537763D01*
X146699781Y-95567279D01*
X146591247Y-95646134D01*
X146586832Y-95651037D01*
X146581920Y-95655460D01*
X146580795Y-95654211D01*
X146527486Y-95687051D01*
X146494300Y-95691500D01*
X143310700Y-95691500D01*
X143242579Y-95671498D01*
X143223353Y-95655157D01*
X143223080Y-95655460D01*
X143218168Y-95651037D01*
X143213753Y-95646134D01*
X143105219Y-95567279D01*
X143064594Y-95537763D01*
X143064593Y-95537762D01*
X143059252Y-95533882D01*
X143053224Y-95531198D01*
X143053222Y-95531197D01*
X142890819Y-95458891D01*
X142890818Y-95458891D01*
X142884788Y-95456206D01*
X142791388Y-95436353D01*
X142704444Y-95417872D01*
X142704439Y-95417872D01*
X142697987Y-95416500D01*
X142507013Y-95416500D01*
X142500561Y-95417872D01*
X142500556Y-95417872D01*
X142413612Y-95436353D01*
X142320212Y-95456206D01*
X142314182Y-95458891D01*
X142314181Y-95458891D01*
X142151778Y-95531197D01*
X142151776Y-95531198D01*
X142145748Y-95533882D01*
X141991247Y-95646134D01*
X141863460Y-95788056D01*
X141767973Y-95953444D01*
X141708958Y-96135072D01*
X141688996Y-96325000D01*
X102386403Y-96325000D01*
X102474386Y-69725000D01*
X128688996Y-69725000D01*
X128708958Y-69914928D01*
X128767973Y-70096556D01*
X128863460Y-70261944D01*
X128936637Y-70343215D01*
X128967353Y-70407221D01*
X128969000Y-70427524D01*
X128969000Y-71946233D01*
X128968473Y-71957416D01*
X128966798Y-71964909D01*
X128967047Y-71972835D01*
X128967047Y-71972836D01*
X128968938Y-72032986D01*
X128969000Y-72036945D01*
X128969000Y-72064856D01*
X128969497Y-72068790D01*
X128969497Y-72068791D01*
X128969505Y-72068856D01*
X128970438Y-72080693D01*
X128971827Y-72124889D01*
X128977478Y-72144339D01*
X128981487Y-72163700D01*
X128984026Y-72183797D01*
X128986945Y-72191168D01*
X128986945Y-72191170D01*
X129000304Y-72224912D01*
X129004149Y-72236142D01*
X129016482Y-72278593D01*
X129020515Y-72285412D01*
X129020517Y-72285417D01*
X129026793Y-72296028D01*
X129035488Y-72313776D01*
X129042948Y-72332617D01*
X129047610Y-72339033D01*
X129047610Y-72339034D01*
X129068936Y-72368387D01*
X129075452Y-72378307D01*
X129097958Y-72416362D01*
X129112279Y-72430683D01*
X129125119Y-72445716D01*
X129137028Y-72462107D01*
X129143134Y-72467158D01*
X129171105Y-72490298D01*
X129179884Y-72498288D01*
X149957095Y-93275499D01*
X149991121Y-93337811D01*
X149994000Y-93364594D01*
X149994000Y-94293923D01*
X149985765Y-94337089D01*
X149984305Y-94339745D01*
X149982334Y-94347423D01*
X149979267Y-94359367D01*
X149972863Y-94378071D01*
X149964819Y-94396660D01*
X149963580Y-94404483D01*
X149963577Y-94404493D01*
X149957901Y-94440329D01*
X149955495Y-94451949D01*
X149944500Y-94494775D01*
X149944500Y-94515029D01*
X149942949Y-94534739D01*
X149939780Y-94554748D01*
X149940526Y-94562640D01*
X149943941Y-94598766D01*
X149944500Y-94610624D01*
X149944500Y-101022476D01*
X149924498Y-101090597D01*
X149912142Y-101106779D01*
X149838960Y-101188056D01*
X149743473Y-101353444D01*
X149684458Y-101535072D01*
X149664496Y-101725000D01*
X149665186Y-101731565D01*
X149670736Y-101784366D01*
X149684458Y-101914928D01*
X149743473Y-102096556D01*
X149838960Y-102261944D01*
X149966747Y-102403866D01*
X150121248Y-102516118D01*
X150127276Y-102518802D01*
X150127278Y-102518803D01*
X150289681Y-102591109D01*
X150295712Y-102593794D01*
X150389112Y-102613647D01*
X150476056Y-102632128D01*
X150476061Y-102632128D01*
X150482513Y-102633500D01*
X150543000Y-102633500D01*
X150611121Y-102653502D01*
X150657614Y-102707158D01*
X150669000Y-102759500D01*
X150669000Y-103210405D01*
X150648998Y-103278526D01*
X150632095Y-103299501D01*
X150364043Y-103567552D01*
X150349008Y-103580393D01*
X150333807Y-103591437D01*
X150323890Y-103597951D01*
X150285833Y-103620458D01*
X150271512Y-103634779D01*
X150256479Y-103647619D01*
X150240088Y-103659528D01*
X150235037Y-103665634D01*
X150211897Y-103693605D01*
X150203907Y-103702384D01*
X148010247Y-105896043D01*
X148001961Y-105903583D01*
X147995482Y-105907695D01*
X147990057Y-105913472D01*
X147948857Y-105957346D01*
X147946102Y-105960188D01*
X147926365Y-105979925D01*
X147923885Y-105983122D01*
X147916182Y-105992142D01*
X147885914Y-106024374D01*
X147882095Y-106031320D01*
X147882093Y-106031323D01*
X147876152Y-106042129D01*
X147865301Y-106058648D01*
X147852886Y-106074654D01*
X147849741Y-106081923D01*
X147849738Y-106081927D01*
X147835326Y-106115232D01*
X147830109Y-106125882D01*
X147808805Y-106164635D01*
X147806834Y-106172310D01*
X147806834Y-106172311D01*
X147803767Y-106184257D01*
X147797363Y-106202961D01*
X147789319Y-106221550D01*
X147788080Y-106229373D01*
X147788077Y-106229383D01*
X147782401Y-106265219D01*
X147779995Y-106276839D01*
X147769000Y-106319665D01*
X147769000Y-106339919D01*
X147767449Y-106359629D01*
X147764280Y-106379638D01*
X147765026Y-106387530D01*
X147768441Y-106423656D01*
X147769000Y-106435514D01*
X147769000Y-110834848D01*
X147763682Y-110864202D01*
X147765356Y-110864600D01*
X147763529Y-110872285D01*
X147760755Y-110879684D01*
X147754000Y-110941866D01*
X147754000Y-112638134D01*
X147760755Y-112700316D01*
X147811885Y-112836705D01*
X147899239Y-112953261D01*
X148015795Y-113040615D01*
X148152184Y-113091745D01*
X148162974Y-113092917D01*
X148165106Y-113093803D01*
X148167722Y-113094425D01*
X148167621Y-113094848D01*
X148228535Y-113120155D01*
X148268963Y-113178517D01*
X148271422Y-113249471D01*
X148235129Y-113310490D01*
X148226469Y-113317489D01*
X148222707Y-113320646D01*
X148218200Y-113323802D01*
X148056302Y-113485700D01*
X148053145Y-113490208D01*
X148053143Y-113490211D01*
X148042828Y-113504943D01*
X147924977Y-113673251D01*
X147922654Y-113678233D01*
X147922651Y-113678238D01*
X147871747Y-113787404D01*
X147828216Y-113880757D01*
X147826794Y-113886065D01*
X147826793Y-113886067D01*
X147770383Y-114096591D01*
X147768957Y-114101913D01*
X147749002Y-114330000D01*
X147768957Y-114558087D01*
X147770381Y-114563400D01*
X147770381Y-114563402D01*
X147804978Y-114692517D01*
X147828216Y-114779243D01*
X147830539Y-114784224D01*
X147830539Y-114784225D01*
X147922651Y-114981762D01*
X147922654Y-114981767D01*
X147924977Y-114986749D01*
X148056302Y-115174300D01*
X148218200Y-115336198D01*
X148222708Y-115339355D01*
X148222711Y-115339357D01*
X148300889Y-115394098D01*
X148405751Y-115467523D01*
X148410733Y-115469846D01*
X148410738Y-115469849D01*
X148444957Y-115485805D01*
X148498242Y-115532722D01*
X148517703Y-115600999D01*
X148497161Y-115668959D01*
X148444957Y-115714195D01*
X148410738Y-115730151D01*
X148410733Y-115730154D01*
X148405751Y-115732477D01*
X148300889Y-115805902D01*
X148222711Y-115860643D01*
X148222708Y-115860645D01*
X148218200Y-115863802D01*
X148056302Y-116025700D01*
X147924977Y-116213251D01*
X147922654Y-116218233D01*
X147922651Y-116218238D01*
X147869137Y-116333000D01*
X147828216Y-116420757D01*
X147768957Y-116641913D01*
X147749002Y-116870000D01*
X147768957Y-117098087D01*
X147828216Y-117319243D01*
X147830539Y-117324224D01*
X147830539Y-117324225D01*
X147922651Y-117521762D01*
X147922654Y-117521767D01*
X147924977Y-117526749D01*
X148056302Y-117714300D01*
X148218200Y-117876198D01*
X148222708Y-117879355D01*
X148222711Y-117879357D01*
X148300889Y-117934098D01*
X148405751Y-118007523D01*
X148410733Y-118009846D01*
X148410738Y-118009849D01*
X148445549Y-118026081D01*
X148498834Y-118072998D01*
X148518295Y-118141275D01*
X148497753Y-118209235D01*
X148445549Y-118254471D01*
X148410989Y-118270586D01*
X148401493Y-118276069D01*
X148223033Y-118401028D01*
X148214625Y-118408084D01*
X148060584Y-118562125D01*
X148053528Y-118570533D01*
X147928569Y-118748993D01*
X147923086Y-118758489D01*
X147831010Y-118955947D01*
X147827264Y-118966239D01*
X147781106Y-119138503D01*
X147781442Y-119152599D01*
X147789384Y-119156000D01*
X150330467Y-119156000D01*
X150343998Y-119152027D01*
X150345227Y-119143478D01*
X150297736Y-118966239D01*
X150293990Y-118955947D01*
X150201914Y-118758489D01*
X150196431Y-118748993D01*
X150071472Y-118570533D01*
X150064416Y-118562125D01*
X149910375Y-118408084D01*
X149901967Y-118401028D01*
X149723507Y-118276069D01*
X149714011Y-118270586D01*
X149679451Y-118254471D01*
X149626166Y-118207554D01*
X149606705Y-118139277D01*
X149627247Y-118071317D01*
X149679451Y-118026081D01*
X149714262Y-118009849D01*
X149714267Y-118009846D01*
X149719249Y-118007523D01*
X149824111Y-117934098D01*
X149902289Y-117879357D01*
X149902292Y-117879355D01*
X149906800Y-117876198D01*
X150068698Y-117714300D01*
X150200023Y-117526749D01*
X150202346Y-117521767D01*
X150202349Y-117521762D01*
X150294461Y-117324225D01*
X150294461Y-117324224D01*
X150296784Y-117319243D01*
X150356043Y-117098087D01*
X150375998Y-116870000D01*
X150356043Y-116641913D01*
X150296784Y-116420757D01*
X150255863Y-116333000D01*
X150202349Y-116218238D01*
X150202346Y-116218233D01*
X150200023Y-116213251D01*
X150068698Y-116025700D01*
X149906800Y-115863802D01*
X149902292Y-115860645D01*
X149902289Y-115860643D01*
X149824111Y-115805902D01*
X149719249Y-115732477D01*
X149714267Y-115730154D01*
X149714262Y-115730151D01*
X149680043Y-115714195D01*
X149626758Y-115667278D01*
X149607297Y-115599001D01*
X149627839Y-115531041D01*
X149680043Y-115485805D01*
X149714262Y-115469849D01*
X149714267Y-115469846D01*
X149719249Y-115467523D01*
X149824111Y-115394098D01*
X149902289Y-115339357D01*
X149902292Y-115339355D01*
X149906800Y-115336198D01*
X150068698Y-115174300D01*
X150200023Y-114986749D01*
X150202346Y-114981767D01*
X150202349Y-114981762D01*
X150294461Y-114784225D01*
X150294461Y-114784224D01*
X150296784Y-114779243D01*
X150320023Y-114692517D01*
X150354619Y-114563402D01*
X150354619Y-114563400D01*
X150356043Y-114558087D01*
X150375998Y-114330000D01*
X150356043Y-114101913D01*
X150354617Y-114096591D01*
X150298207Y-113886067D01*
X150298206Y-113886065D01*
X150296784Y-113880757D01*
X150253253Y-113787404D01*
X150202349Y-113678238D01*
X150202346Y-113678233D01*
X150200023Y-113673251D01*
X150082172Y-113504943D01*
X150071857Y-113490211D01*
X150071855Y-113490208D01*
X150068698Y-113485700D01*
X149906800Y-113323802D01*
X149902289Y-113320643D01*
X149898076Y-113317108D01*
X149899027Y-113315974D01*
X149859029Y-113265929D01*
X149851724Y-113195310D01*
X149883758Y-113131951D01*
X149944962Y-113095970D01*
X149962017Y-113092918D01*
X149972816Y-113091745D01*
X150109205Y-113040615D01*
X150225761Y-112953261D01*
X150313115Y-112836705D01*
X150364245Y-112700316D01*
X150371000Y-112638134D01*
X150371000Y-110941866D01*
X150364245Y-110879684D01*
X150313115Y-110743295D01*
X150225761Y-110626739D01*
X150109205Y-110539385D01*
X149972816Y-110488255D01*
X149910634Y-110481500D01*
X149162000Y-110481500D01*
X149093879Y-110461498D01*
X149047386Y-110407842D01*
X149036000Y-110355500D01*
X149036000Y-107305801D01*
X149056002Y-107237680D01*
X149109658Y-107191187D01*
X149179932Y-107181083D01*
X149207875Y-107189144D01*
X149207900Y-107189068D01*
X149210165Y-107189804D01*
X149213247Y-107190693D01*
X149220212Y-107193794D01*
X149313613Y-107213647D01*
X149400556Y-107232128D01*
X149400561Y-107232128D01*
X149407013Y-107233500D01*
X149597987Y-107233500D01*
X149604439Y-107232128D01*
X149604444Y-107232128D01*
X149691387Y-107213647D01*
X149784788Y-107193794D01*
X149813338Y-107181083D01*
X149953222Y-107118803D01*
X149953224Y-107118802D01*
X149959252Y-107116118D01*
X149969000Y-107109036D01*
X150014657Y-107075864D01*
X150113753Y-107003866D01*
X150241540Y-106861944D01*
X150337027Y-106696556D01*
X150396042Y-106514928D01*
X150413407Y-106349706D01*
X150440420Y-106284050D01*
X150449622Y-106273782D01*
X152394753Y-104328652D01*
X152403039Y-104321112D01*
X152409518Y-104317000D01*
X152456144Y-104267348D01*
X152458898Y-104264507D01*
X152478635Y-104244770D01*
X152481115Y-104241573D01*
X152488820Y-104232551D01*
X152513659Y-104206100D01*
X152519086Y-104200321D01*
X152522905Y-104193375D01*
X152522907Y-104193372D01*
X152528848Y-104182566D01*
X152539699Y-104166047D01*
X152547258Y-104156301D01*
X152552114Y-104150041D01*
X152555259Y-104142772D01*
X152555262Y-104142768D01*
X152569674Y-104109463D01*
X152574891Y-104098813D01*
X152596195Y-104060060D01*
X152601233Y-104040437D01*
X152607637Y-104021734D01*
X152612533Y-104010420D01*
X152612533Y-104010419D01*
X152615681Y-104003145D01*
X152616920Y-103995322D01*
X152616923Y-103995312D01*
X152622599Y-103959476D01*
X152625005Y-103947856D01*
X152634028Y-103912711D01*
X152634028Y-103912710D01*
X152636000Y-103905030D01*
X152636000Y-103884776D01*
X152637551Y-103865065D01*
X152639480Y-103852886D01*
X152640720Y-103845057D01*
X152636559Y-103801038D01*
X152636000Y-103789181D01*
X152636000Y-102759500D01*
X152656002Y-102691379D01*
X152709658Y-102644886D01*
X152762000Y-102633500D01*
X152897987Y-102633500D01*
X152904439Y-102632128D01*
X152904444Y-102632128D01*
X152991388Y-102613647D01*
X153084788Y-102593794D01*
X153090819Y-102591109D01*
X153253222Y-102518803D01*
X153253224Y-102518802D01*
X153259252Y-102516118D01*
X153413753Y-102403866D01*
X153541540Y-102261944D01*
X153637027Y-102096556D01*
X153653595Y-102045565D01*
X153693668Y-101986959D01*
X153759064Y-101959321D01*
X153773428Y-101958500D01*
X165223733Y-101958500D01*
X165234916Y-101959027D01*
X165242409Y-101960702D01*
X165250335Y-101960453D01*
X165250336Y-101960453D01*
X165310486Y-101958562D01*
X165314445Y-101958500D01*
X165342356Y-101958500D01*
X165346291Y-101958003D01*
X165346356Y-101957995D01*
X165358193Y-101957062D01*
X165390451Y-101956048D01*
X165394470Y-101955922D01*
X165402389Y-101955673D01*
X165421843Y-101950021D01*
X165441200Y-101946013D01*
X165453430Y-101944468D01*
X165453431Y-101944468D01*
X165461297Y-101943474D01*
X165468668Y-101940555D01*
X165468670Y-101940555D01*
X165502412Y-101927196D01*
X165513642Y-101923351D01*
X165548483Y-101913229D01*
X165548484Y-101913229D01*
X165556093Y-101911018D01*
X165562912Y-101906985D01*
X165562917Y-101906983D01*
X165573528Y-101900707D01*
X165591276Y-101892012D01*
X165610117Y-101884552D01*
X165645887Y-101858564D01*
X165655807Y-101852048D01*
X165687035Y-101833580D01*
X165687038Y-101833578D01*
X165693862Y-101829542D01*
X165708183Y-101815221D01*
X165723217Y-101802380D01*
X165733194Y-101795131D01*
X165739607Y-101790472D01*
X165767798Y-101756395D01*
X165775788Y-101747616D01*
X168952999Y-98570405D01*
X169015311Y-98536379D01*
X169042094Y-98533500D01*
X169097987Y-98533500D01*
X169104439Y-98532128D01*
X169104444Y-98532128D01*
X169191387Y-98513647D01*
X169284788Y-98493794D01*
X169290819Y-98491109D01*
X169453222Y-98418803D01*
X169453224Y-98418802D01*
X169459252Y-98416118D01*
X169613753Y-98303866D01*
X169741540Y-98161944D01*
X169821159Y-98024040D01*
X169833723Y-98002279D01*
X169833724Y-98002278D01*
X169837027Y-97996556D01*
X169896042Y-97814928D01*
X169916004Y-97625000D01*
X169896042Y-97435072D01*
X169878306Y-97380487D01*
X176594000Y-97380487D01*
X176633706Y-97567288D01*
X176711382Y-97741752D01*
X176823634Y-97896253D01*
X176965556Y-98024040D01*
X177130944Y-98119527D01*
X177312572Y-98178542D01*
X177319133Y-98179232D01*
X177319135Y-98179232D01*
X177372389Y-98184829D01*
X177454890Y-98193500D01*
X177550110Y-98193500D01*
X177632611Y-98184829D01*
X177685865Y-98179232D01*
X177685867Y-98179232D01*
X177692428Y-98178542D01*
X177874056Y-98119527D01*
X178039444Y-98024040D01*
X178181366Y-97896253D01*
X178293618Y-97741752D01*
X178371294Y-97567288D01*
X178411000Y-97380487D01*
X178411000Y-97189513D01*
X178396154Y-97119666D01*
X178390650Y-97093774D01*
X178371294Y-97002712D01*
X178360515Y-96978502D01*
X178296303Y-96834278D01*
X178296302Y-96834276D01*
X178293618Y-96828248D01*
X178287695Y-96820095D01*
X178202096Y-96702279D01*
X178181366Y-96673747D01*
X178164034Y-96658141D01*
X178044352Y-96550379D01*
X178044351Y-96550378D01*
X178039444Y-96545960D01*
X177874056Y-96450473D01*
X177692428Y-96391458D01*
X177685867Y-96390768D01*
X177685865Y-96390768D01*
X177632611Y-96385171D01*
X177550110Y-96376500D01*
X177454890Y-96376500D01*
X177372389Y-96385171D01*
X177319135Y-96390768D01*
X177319133Y-96390768D01*
X177312572Y-96391458D01*
X177130944Y-96450473D01*
X176965556Y-96545960D01*
X176960649Y-96550378D01*
X176960648Y-96550379D01*
X176840966Y-96658141D01*
X176823634Y-96673747D01*
X176802904Y-96702279D01*
X176717306Y-96820095D01*
X176711382Y-96828248D01*
X176708698Y-96834276D01*
X176708697Y-96834278D01*
X176644485Y-96978502D01*
X176633706Y-97002712D01*
X176614350Y-97093774D01*
X176608847Y-97119666D01*
X176594000Y-97189513D01*
X176594000Y-97380487D01*
X169878306Y-97380487D01*
X169837027Y-97253444D01*
X169741540Y-97088056D01*
X169624888Y-96958500D01*
X169618175Y-96951045D01*
X169618174Y-96951044D01*
X169613753Y-96946134D01*
X169480297Y-96849172D01*
X169436943Y-96792949D01*
X169430868Y-96722213D01*
X169465263Y-96658141D01*
X174594747Y-91528657D01*
X174603037Y-91521113D01*
X174609518Y-91517000D01*
X174656159Y-91467332D01*
X174658913Y-91464491D01*
X174678635Y-91444769D01*
X174681119Y-91441567D01*
X174688817Y-91432555D01*
X174713661Y-91406098D01*
X174719086Y-91400321D01*
X174728847Y-91382566D01*
X174739698Y-91366047D01*
X174752114Y-91350041D01*
X174769674Y-91309463D01*
X174774891Y-91298813D01*
X174796195Y-91260060D01*
X174801233Y-91240437D01*
X174807637Y-91221734D01*
X174812533Y-91210420D01*
X174812533Y-91210419D01*
X174815681Y-91203145D01*
X174816920Y-91195322D01*
X174816923Y-91195312D01*
X174822599Y-91159476D01*
X174825005Y-91147856D01*
X174834028Y-91112711D01*
X174834028Y-91112710D01*
X174836000Y-91105030D01*
X174836000Y-91084776D01*
X174837551Y-91065065D01*
X174839480Y-91052886D01*
X174840720Y-91045057D01*
X174836559Y-91001038D01*
X174836000Y-90989181D01*
X174836000Y-88260487D01*
X176594000Y-88260487D01*
X176633706Y-88447288D01*
X176711382Y-88621752D01*
X176823634Y-88776253D01*
X176828544Y-88780674D01*
X176828545Y-88780675D01*
X176887638Y-88833882D01*
X176965556Y-88904040D01*
X177130944Y-88999527D01*
X177312572Y-89058542D01*
X177319133Y-89059232D01*
X177319135Y-89059232D01*
X177372389Y-89064829D01*
X177454890Y-89073500D01*
X177550110Y-89073500D01*
X177632611Y-89064829D01*
X177685865Y-89059232D01*
X177685867Y-89059232D01*
X177692428Y-89058542D01*
X177874056Y-88999527D01*
X178039444Y-88904040D01*
X178117363Y-88833882D01*
X178176455Y-88780675D01*
X178176456Y-88780674D01*
X178181366Y-88776253D01*
X178293618Y-88621752D01*
X178371294Y-88447288D01*
X178411000Y-88260487D01*
X178411000Y-88069513D01*
X178371294Y-87882712D01*
X178293618Y-87708248D01*
X178181366Y-87553747D01*
X178039444Y-87425960D01*
X177874056Y-87330473D01*
X177692428Y-87271458D01*
X177685867Y-87270768D01*
X177685865Y-87270768D01*
X177632611Y-87265171D01*
X177550110Y-87256500D01*
X177454890Y-87256500D01*
X177372389Y-87265171D01*
X177319135Y-87270768D01*
X177319133Y-87270768D01*
X177312572Y-87271458D01*
X177130944Y-87330473D01*
X176965556Y-87425960D01*
X176823634Y-87553747D01*
X176711382Y-87708248D01*
X176633706Y-87882712D01*
X176594000Y-88069513D01*
X176594000Y-88260487D01*
X174836000Y-88260487D01*
X174836000Y-68603768D01*
X174836527Y-68592585D01*
X174838202Y-68585092D01*
X174837475Y-68561944D01*
X174836062Y-68517002D01*
X174836000Y-68513044D01*
X174836000Y-68485144D01*
X174835496Y-68481153D01*
X174834563Y-68469311D01*
X174833423Y-68433036D01*
X174833174Y-68425111D01*
X174830962Y-68417497D01*
X174830961Y-68417492D01*
X174827523Y-68405659D01*
X174823512Y-68386295D01*
X174821967Y-68374064D01*
X174820974Y-68366203D01*
X174818057Y-68358836D01*
X174818056Y-68358831D01*
X174804698Y-68325092D01*
X174800854Y-68313865D01*
X174790730Y-68279022D01*
X174788518Y-68271407D01*
X174778207Y-68253972D01*
X174769512Y-68236224D01*
X174762052Y-68217383D01*
X174736064Y-68181613D01*
X174729548Y-68171693D01*
X174711080Y-68140465D01*
X174711078Y-68140462D01*
X174707042Y-68133638D01*
X174692721Y-68119317D01*
X174679880Y-68104283D01*
X174672632Y-68094307D01*
X174667972Y-68087893D01*
X174633907Y-68059712D01*
X174625126Y-68051722D01*
X174206147Y-67632742D01*
X174198613Y-67624463D01*
X174194500Y-67617982D01*
X174144848Y-67571356D01*
X174142007Y-67568602D01*
X174122270Y-67548865D01*
X174119073Y-67546385D01*
X174110051Y-67538680D01*
X174083600Y-67513841D01*
X174077821Y-67508414D01*
X174070875Y-67504595D01*
X174070872Y-67504593D01*
X174060066Y-67498652D01*
X174043547Y-67487801D01*
X174037548Y-67483148D01*
X174027541Y-67475386D01*
X174020272Y-67472241D01*
X174020268Y-67472238D01*
X173986963Y-67457826D01*
X173976313Y-67452609D01*
X173937560Y-67431305D01*
X173917937Y-67426267D01*
X173899236Y-67419864D01*
X173893165Y-67417237D01*
X173849566Y-67385909D01*
X173818172Y-67351042D01*
X173813753Y-67346134D01*
X173659252Y-67233882D01*
X173653224Y-67231198D01*
X173653222Y-67231197D01*
X173490819Y-67158891D01*
X173490818Y-67158891D01*
X173484788Y-67156206D01*
X173391388Y-67136353D01*
X173304444Y-67117872D01*
X173304439Y-67117872D01*
X173297987Y-67116500D01*
X173107013Y-67116500D01*
X173100561Y-67117872D01*
X173100556Y-67117872D01*
X173013612Y-67136353D01*
X172920212Y-67156206D01*
X172914182Y-67158891D01*
X172914181Y-67158891D01*
X172751778Y-67231197D01*
X172751776Y-67231198D01*
X172745748Y-67233882D01*
X172591247Y-67346134D01*
X172586828Y-67351042D01*
X172586825Y-67351045D01*
X172477703Y-67472238D01*
X172463460Y-67488056D01*
X172367973Y-67653444D01*
X172308958Y-67835072D01*
X172288996Y-68025000D01*
X172308958Y-68214928D01*
X172367973Y-68396556D01*
X172371276Y-68402278D01*
X172371277Y-68402279D01*
X172380060Y-68417492D01*
X172463460Y-68561944D01*
X172467878Y-68566851D01*
X172467879Y-68566852D01*
X172490440Y-68591908D01*
X172591247Y-68703866D01*
X172745748Y-68816118D01*
X172751776Y-68818802D01*
X172751778Y-68818803D01*
X172841818Y-68858891D01*
X172920212Y-68893794D01*
X173013612Y-68913647D01*
X173100556Y-68932128D01*
X173100561Y-68932128D01*
X173107013Y-68933500D01*
X173297987Y-68933500D01*
X173304439Y-68932128D01*
X173304444Y-68932128D01*
X173416803Y-68908245D01*
X173487594Y-68913647D01*
X173544227Y-68956464D01*
X173568720Y-69023102D01*
X173569000Y-69031492D01*
X173569000Y-90710406D01*
X173548998Y-90778527D01*
X173532095Y-90799501D01*
X165077000Y-99254595D01*
X165014688Y-99288621D01*
X164987905Y-99291500D01*
X152381267Y-99291500D01*
X152370084Y-99290973D01*
X152362591Y-99289298D01*
X152354665Y-99289547D01*
X152354664Y-99289547D01*
X152294514Y-99291438D01*
X152290555Y-99291500D01*
X152262644Y-99291500D01*
X152258710Y-99291997D01*
X152258709Y-99291997D01*
X152258644Y-99292005D01*
X152246807Y-99292938D01*
X152214549Y-99293952D01*
X152210530Y-99294078D01*
X152202611Y-99294327D01*
X152183157Y-99299979D01*
X152163800Y-99303987D01*
X152151570Y-99305532D01*
X152151569Y-99305532D01*
X152143703Y-99306526D01*
X152108648Y-99320406D01*
X152108384Y-99320510D01*
X152037684Y-99326989D01*
X151974704Y-99294217D01*
X151939440Y-99232598D01*
X151936000Y-99203358D01*
X151936000Y-97939594D01*
X151956002Y-97871473D01*
X151972905Y-97850499D01*
X153573905Y-96249500D01*
X156488996Y-96249500D01*
X156489686Y-96256065D01*
X156504131Y-96393498D01*
X156508958Y-96439428D01*
X156567973Y-96621056D01*
X156663460Y-96786444D01*
X156667878Y-96791351D01*
X156667879Y-96791352D01*
X156786825Y-96923455D01*
X156791247Y-96928366D01*
X156945748Y-97040618D01*
X156951776Y-97043302D01*
X156951778Y-97043303D01*
X157114181Y-97115609D01*
X157120212Y-97118294D01*
X157213613Y-97138147D01*
X157300556Y-97156628D01*
X157300561Y-97156628D01*
X157307013Y-97158000D01*
X157497987Y-97158000D01*
X157504439Y-97156628D01*
X157504444Y-97156628D01*
X157591388Y-97138147D01*
X157684788Y-97118294D01*
X157690819Y-97115609D01*
X157853222Y-97043303D01*
X157853224Y-97043302D01*
X157859252Y-97040618D01*
X158013753Y-96928366D01*
X158018175Y-96923455D01*
X158137121Y-96791352D01*
X158137122Y-96791351D01*
X158141540Y-96786444D01*
X158237027Y-96621056D01*
X158296042Y-96439428D01*
X158300870Y-96393498D01*
X158315314Y-96256065D01*
X158316004Y-96249500D01*
X158303977Y-96135072D01*
X158296732Y-96066135D01*
X158296732Y-96066133D01*
X158296042Y-96059572D01*
X158237027Y-95877944D01*
X158141540Y-95712556D01*
X158068363Y-95631285D01*
X158037647Y-95567279D01*
X158036000Y-95546976D01*
X158036000Y-90424557D01*
X158056002Y-90356436D01*
X158087939Y-90322621D01*
X158108409Y-90307749D01*
X158108411Y-90307747D01*
X158113753Y-90303866D01*
X158241540Y-90161944D01*
X158337027Y-89996556D01*
X158396042Y-89814928D01*
X158413407Y-89649706D01*
X158440420Y-89584050D01*
X158449622Y-89573782D01*
X162194747Y-85828657D01*
X162203037Y-85821113D01*
X162209518Y-85817000D01*
X162256159Y-85767332D01*
X162258913Y-85764491D01*
X162278634Y-85744770D01*
X162281112Y-85741575D01*
X162288818Y-85732553D01*
X162313658Y-85706101D01*
X162319086Y-85700321D01*
X162328846Y-85682568D01*
X162339699Y-85666045D01*
X162347253Y-85656306D01*
X162352113Y-85650041D01*
X162369676Y-85609457D01*
X162374883Y-85598827D01*
X162396195Y-85560060D01*
X162398166Y-85552383D01*
X162398168Y-85552378D01*
X162401232Y-85540442D01*
X162407638Y-85521730D01*
X162412533Y-85510419D01*
X162415681Y-85503145D01*
X162416921Y-85495317D01*
X162416923Y-85495310D01*
X162422599Y-85459476D01*
X162425005Y-85447856D01*
X162434028Y-85412711D01*
X162434028Y-85412710D01*
X162436000Y-85405030D01*
X162436000Y-85384776D01*
X162437551Y-85365065D01*
X162439480Y-85352886D01*
X162440720Y-85345057D01*
X162436559Y-85301038D01*
X162436000Y-85289181D01*
X162436000Y-83127524D01*
X162456002Y-83059403D01*
X162468358Y-83043221D01*
X162541540Y-82961944D01*
X162637027Y-82796556D01*
X162696042Y-82614928D01*
X162716004Y-82425000D01*
X162696042Y-82235072D01*
X162637027Y-82053444D01*
X162541540Y-81888056D01*
X162413753Y-81746134D01*
X162259252Y-81633882D01*
X162253224Y-81631198D01*
X162253222Y-81631197D01*
X162090819Y-81558891D01*
X162090818Y-81558891D01*
X162084788Y-81556206D01*
X161991387Y-81536353D01*
X161904444Y-81517872D01*
X161904439Y-81517872D01*
X161897987Y-81516500D01*
X161707013Y-81516500D01*
X161700561Y-81517872D01*
X161700556Y-81517872D01*
X161613613Y-81536353D01*
X161520212Y-81556206D01*
X161514182Y-81558891D01*
X161514181Y-81558891D01*
X161351778Y-81631197D01*
X161351776Y-81631198D01*
X161345748Y-81633882D01*
X161191247Y-81746134D01*
X161063460Y-81888056D01*
X160967973Y-82053444D01*
X160908958Y-82235072D01*
X160888996Y-82425000D01*
X160908958Y-82614928D01*
X160967973Y-82796556D01*
X161063460Y-82961944D01*
X161136637Y-83043215D01*
X161167353Y-83107221D01*
X161169000Y-83127524D01*
X161169000Y-85010405D01*
X161148998Y-85078526D01*
X161132095Y-85099500D01*
X157552000Y-88679595D01*
X157489688Y-88713621D01*
X157462905Y-88716500D01*
X157407013Y-88716500D01*
X157400561Y-88717872D01*
X157400556Y-88717872D01*
X157313613Y-88736353D01*
X157220212Y-88756206D01*
X157214182Y-88758891D01*
X157214181Y-88758891D01*
X157051778Y-88831197D01*
X157051776Y-88831198D01*
X157045748Y-88833882D01*
X156891247Y-88946134D01*
X156763460Y-89088056D01*
X156667973Y-89253444D01*
X156608958Y-89435072D01*
X156588996Y-89625000D01*
X156608958Y-89814928D01*
X156667973Y-89996556D01*
X156671276Y-90002278D01*
X156671277Y-90002279D01*
X156752119Y-90142301D01*
X156769000Y-90205301D01*
X156769000Y-95546976D01*
X156748998Y-95615097D01*
X156736642Y-95631279D01*
X156663460Y-95712556D01*
X156567973Y-95877944D01*
X156508958Y-96059572D01*
X156508268Y-96066133D01*
X156508268Y-96066135D01*
X156501023Y-96135072D01*
X156488996Y-96249500D01*
X153573905Y-96249500D01*
X154653000Y-95170405D01*
X154715312Y-95136379D01*
X154742095Y-95133500D01*
X154797987Y-95133500D01*
X154804439Y-95132128D01*
X154804444Y-95132128D01*
X154891388Y-95113647D01*
X154984788Y-95093794D01*
X154990819Y-95091109D01*
X155153222Y-95018803D01*
X155153224Y-95018802D01*
X155159252Y-95016118D01*
X155313753Y-94903866D01*
X155318175Y-94898955D01*
X155437121Y-94766852D01*
X155437122Y-94766851D01*
X155441540Y-94761944D01*
X155528905Y-94610624D01*
X155533723Y-94602279D01*
X155533724Y-94602278D01*
X155537027Y-94596556D01*
X155596042Y-94414928D01*
X155605798Y-94322110D01*
X155615314Y-94231565D01*
X155616004Y-94225000D01*
X155596042Y-94035072D01*
X155537027Y-93853444D01*
X155441540Y-93688056D01*
X155313753Y-93546134D01*
X155159252Y-93433882D01*
X155153224Y-93431198D01*
X155153222Y-93431197D01*
X154990819Y-93358891D01*
X154990818Y-93358891D01*
X154984788Y-93356206D01*
X154891388Y-93336353D01*
X154804444Y-93317872D01*
X154804439Y-93317872D01*
X154797987Y-93316500D01*
X154607013Y-93316500D01*
X154600561Y-93317872D01*
X154600556Y-93317872D01*
X154513613Y-93336353D01*
X154420212Y-93356206D01*
X154414182Y-93358891D01*
X154414181Y-93358891D01*
X154251778Y-93431197D01*
X154251776Y-93431198D01*
X154245748Y-93433882D01*
X154091247Y-93546134D01*
X153963460Y-93688056D01*
X153867973Y-93853444D01*
X153808958Y-94035072D01*
X153808268Y-94041633D01*
X153808268Y-94041635D01*
X153791593Y-94200293D01*
X153764580Y-94265950D01*
X153755378Y-94276218D01*
X151426595Y-96605000D01*
X151364283Y-96639026D01*
X151293467Y-96633961D01*
X151236632Y-96591414D01*
X151211821Y-96524894D01*
X151211500Y-96515905D01*
X151211500Y-94806187D01*
X151219735Y-94763021D01*
X151221195Y-94760365D01*
X151226233Y-94740742D01*
X151232637Y-94722039D01*
X151237533Y-94710725D01*
X151237533Y-94710724D01*
X151240681Y-94703450D01*
X151241920Y-94695627D01*
X151241923Y-94695617D01*
X151247599Y-94659781D01*
X151250005Y-94648161D01*
X151259028Y-94613016D01*
X151259028Y-94613015D01*
X151261000Y-94605335D01*
X151261000Y-94585081D01*
X151262551Y-94565370D01*
X151264480Y-94553191D01*
X151265720Y-94545362D01*
X151261559Y-94501343D01*
X151261000Y-94489486D01*
X151261000Y-93128767D01*
X151261527Y-93117584D01*
X151263202Y-93110091D01*
X151261062Y-93042014D01*
X151261000Y-93038055D01*
X151261000Y-93010144D01*
X151260495Y-93006144D01*
X151259562Y-92994301D01*
X151258422Y-92958029D01*
X151258173Y-92950110D01*
X151252522Y-92930658D01*
X151248514Y-92911306D01*
X151246967Y-92899063D01*
X151245974Y-92891203D01*
X151243056Y-92883832D01*
X151229700Y-92850097D01*
X151225855Y-92838870D01*
X151225221Y-92836687D01*
X151213518Y-92796407D01*
X151203207Y-92778972D01*
X151194512Y-92761224D01*
X151187052Y-92742383D01*
X151161064Y-92706613D01*
X151154548Y-92696693D01*
X151136080Y-92665465D01*
X151136078Y-92665462D01*
X151132042Y-92658638D01*
X151117721Y-92644317D01*
X151104880Y-92629283D01*
X151097631Y-92619306D01*
X151092972Y-92612893D01*
X151058895Y-92584702D01*
X151050116Y-92576712D01*
X130272905Y-71799500D01*
X130238879Y-71737188D01*
X130236000Y-71710405D01*
X130236000Y-70427524D01*
X130256002Y-70359403D01*
X130268358Y-70343221D01*
X130341540Y-70261944D01*
X130437027Y-70096556D01*
X130496042Y-69914928D01*
X130516004Y-69725000D01*
X130496042Y-69535072D01*
X130437027Y-69353444D01*
X130341540Y-69188056D01*
X130213753Y-69046134D01*
X130059252Y-68933882D01*
X130053224Y-68931198D01*
X130053222Y-68931197D01*
X129890819Y-68858891D01*
X129890818Y-68858891D01*
X129884788Y-68856206D01*
X129791387Y-68836353D01*
X129704444Y-68817872D01*
X129704439Y-68817872D01*
X129697987Y-68816500D01*
X129507013Y-68816500D01*
X129500561Y-68817872D01*
X129500556Y-68817872D01*
X129413613Y-68836353D01*
X129320212Y-68856206D01*
X129314182Y-68858891D01*
X129314181Y-68858891D01*
X129151778Y-68931197D01*
X129151776Y-68931198D01*
X129145748Y-68933882D01*
X128991247Y-69046134D01*
X128863460Y-69188056D01*
X128767973Y-69353444D01*
X128708958Y-69535072D01*
X128688996Y-69725000D01*
X102474386Y-69725000D01*
X102502085Y-61350583D01*
X102522312Y-61282529D01*
X102576121Y-61236214D01*
X102628084Y-61225000D01*
X186576500Y-61225000D01*
X186644621Y-61245002D01*
G37*
G04 #@! TD.AperFunction*
M02*
