M48
; DRILL file {KiCad (6.0.7)} date Thu Aug 18 23:53:09 2022
; FORMAT={-:-/ absolute / metric / decimal}
; #@! TF.CreationDate,2022-08-18T23:53:09-03:00
; #@! TF.GenerationSoftware,Kicad,Pcbnew,(6.0.7)
; #@! TF.FileFunction,Plated,1,2,PTH
FMAT,2
METRIC
; #@! TA.AperFunction,Plated,PTH,ViaDrill
T1C0.400
; #@! TA.AperFunction,Plated,PTH,ComponentDrill
T2C0.800
%
G90
G05
T1
X129.602Y-69.725
X136.903Y-98.325
X137.403Y-104.225
X138.602Y-119.525
X142.602Y-96.325
X143.702Y-94.325
X144.802Y-100.825
X146.802Y-119.525
X147.202Y-96.325
X149.502Y-106.325
X149.903Y-94.225
X150.578Y-101.725
X152.802Y-101.725
X153.302Y-98.425
X154.702Y-94.225
X155.403Y-98.425
X157.403Y-96.249
X157.502Y-89.625
X158.502Y-105.425
X161.04Y-98.025
X161.802Y-82.425
X168.202Y-94.825
X168.302Y-90.425
X169.002Y-97.625
X173.202Y-68.025
T2
X149.062Y-111.79
X149.062Y-114.33
X149.062Y-116.87
X149.062Y-119.41
X149.062Y-121.95
X149.062Y-124.49
X149.062Y-127.03
X149.062Y-129.57
X156.683Y-111.79
X156.683Y-114.33
X156.683Y-116.87
X156.683Y-119.41
X156.683Y-121.95
X156.683Y-124.49
X156.683Y-127.03
X156.683Y-129.57
T0
M30
